{
  "accessors": [
    {
      "bufferView": 1,
      "componentType": 5126,
      "count": 124,
      "max": [
        0.98000001907348633,
        0.98000001907348633,
        0.30000001192092896
      ],
      "min": [
        -0.98000001907348633,
        -0.98000001907348633,
        0.14000000059604645
      ],
      "type": "VEC3"
    },
    {
      "bufferView": 1,
      "byteOffset": 1488,
      "componentType": 5126,
      "count": 124,
      "max": [
        1,
        1,
        1
      ],
      "min": [
        -1,
        -1,
        0
      ],
      "type": "VEC3"
    },
    {
      "bufferView": 0,
      "componentType": 5125,
      "count": 252,
      "max": [
        123
      ],
      "min": [
        0
      ],
      "type": "SCALAR"
    },
    {
      "bufferView": 1,
      "byteOffset": 2976,
      "componentType": 5126,
      "count": 661,
      "max": [
        1.1499999761581421,
        1.1499999761581421,
        0.20000000298023224
      ],
      "min": [
        -1.1499999761581421,
        -1.1499999761581421,
        0
      ],
      "type": "VEC3"
    },
    {
      "bufferView": 1,
      "byteOffset": 10908,
      "componentType": 5126,
      "count": 661,
      "max": [
        1,
        1,
        1
      ],
      "min": [
        -1,
        -1,
        -1
      ],
      "type": "VEC3"
    },
    {
      "bufferView": 0,
      "byteOffset": 1008,
      "componentType": 5125,
      "count": 1479,
      "max": [
        660
      ],
      "min": [
        0
      ],
      "type": "SCALAR"
    }
  ],
  "asset": {
    "generator": "Sketchfab (OSG glTF plugin)",
    "version": "2.0"
  },
  "bufferViews": [
    {
      "buffer": 0,
      "byteLength": 6924,
      "byteOffset": 0,
      "name": "floatBufferViews",
      "target": 34963
    },
    {
      "buffer": 0,
      "byteLength": 18840,
      "byteOffset": 6924,
      "byteStride": 12,
      "name": "floatBufferViews",
      "target": 34962
    }
  ],
  "buffers": [
    {
      "byteLength": 25764,
      "uri": "scene.bin"
    }
  ],
  "materials": [
    {
      "doubleSided": true,
      "emissiveFactor": [
        0,
        0,
        0
      ],
      "name": "Stone",
      "pbrMetallicRoughness": {
        "baseColorFactor": [
          0.26225066180000001,
          0.29177066680000002,
          0.28314879539999999,
          1
        ],
        "metallicFactor": 0,
        "roughnessFactor": 0.59999999999999998
      }
    },
    {
      "alphaMode": "BLEND",
      "doubleSided": true,
      "emissiveFactor": [
        0.064357210880000001,
        0.80000000000000004,
        0.49670998655999998
      ],
      "name": "GlowYellow",
      "pbrMetallicRoughness": {
        "baseColorFactor": [
          0.0237293417,
          0.1790150717,
          0.11858463800000001,
          0.69999999999999996
        ],
        "metallicFactor": 0,
        "roughnessFactor": 0.59999999999999998
      }
    }
  ],
  "meshes": [
    {
      "name": "Portal_2x2x1_1",
      "primitives": [
        {
          "attributes": {
            "NORMAL": 1,
            "POSITION": 0
          },
          "indices": 2,
          "material": 1,
          "mode": 4
        }
      ]
    },
    {
      "name": "Portal_2x2x1_2",
      "primitives": [
        {
          "attributes": {
            "NORMAL": 4,
            "POSITION": 3
          },
          "indices": 5,
          "material": 0,
          "mode": 4
        }
      ]
    }
  ],
  "nodes": [
    {
      "children": [
        1
      ],
      "name": "RootNode (gltf orientation matrix)",
      "rotation": [
        -0.70710678118654746,
        -0,
        -0,
        0.70710678118654757
      ]
    },
    {
      "children": [
        2
      ],
      "name": "RootNode (model correction matrix)"
    },
    {
      "children": [
        3
      ],
      "name": "Root"
    },
    {
      "children": [
        4
      ],
      "name": "Portal_2x2x1"
    },
    {
      "children": [
        5,
        6
      ],
      "name": "Geode"
    },
    {
      "mesh": 0,
      "name": "Portal_2x2x1_1"
    },
    {
      "mesh": 1,
      "name": "Portal_2x2x1_2"
    }
  ],
  "scene": 0,
  "scenes": [
    {
      "name": "OSG_Scene",
      "nodes": [
        0
      ]
    }
  ]
}

