{
  "accessors": [
    {
      "bufferView": 1,
      "componentType": 5126,
      "count": 208,
      "max": [
        0.40000000596046448,
        1.8999999761581421,
        1.8999999761581421
      ],
      "min": [
        0.059999998658895493,
        0.10000000149011612,
        0.93999999761581421
      ],
      "type": "VEC3"
    },
    {
      "bufferView": 1,
      "byteOffset": 2496,
      "componentType": 5126,
      "count": 208,
      "max": [
        1,
        1,
        1
      ],
      "min": [
        -1,
        -1,
        -1
      ],
      "type": "VEC3"
    },
    {
      "bufferView": 0,
      "componentType": 5125,
      "count": 336,
      "max": [
        207
      ],
      "min": [
        0
      ],
      "type": "SCALAR"
    },
    {
      "bufferView": 1,
      "byteOffset": 4992,
      "componentType": 5126,
      "count": 400,
      "max": [
        0.36546999216079712,
        1.3558700084686279,
        1.7000000476837158
      ],
      "min": [
        0.095469996333122253,
        0.11999999731779099,
        1.5
      ],
      "type": "VEC3"
    },
    {
      "bufferView": 1,
      "byteOffset": 9792,
      "componentType": 5126,
      "count": 400,
      "max": [
        0.92388087511062622,
        0.92388087511062622,
        1
      ],
      "min": [
        -0.92388087511062622,
        -0.92388087511062622,
        -1
      ],
      "type": "VEC3"
    },
    {
      "bufferView": 0,
      "byteOffset": 1344,
      "componentType": 5125,
      "count": 648,
      "max": [
        399
      ],
      "min": [
        0
      ],
      "type": "SCALAR"
    },
    {
      "bufferView": 1,
      "byteOffset": 14592,
      "componentType": 5126,
      "count": 142,
      "max": [
        0.37206000089645386,
        1.8309400081634521,
        1.6000000238418579
      ],
      "min": [
        0.14666999876499176,
        1.5146499872207642,
        1.5
      ],
      "type": "VEC3"
    },
    {
      "bufferView": 1,
      "byteOffset": 16296,
      "componentType": 5126,
      "count": 142,
      "max": [
        0.99619430303573608,
        0.99619609117507935,
        1
      ],
      "min": [
        -0.99619525671005249,
        -0.99619609117507935,
        -1
      ],
      "type": "VEC3"
    },
    {
      "bufferView": 0,
      "byteOffset": 3936,
      "componentType": 5125,
      "count": 210,
      "max": [
        141
      ],
      "min": [
        0
      ],
      "type": "SCALAR"
    },
    {
      "bufferView": 1,
      "byteOffset": 18000,
      "componentType": 5126,
      "count": 48,
      "max": [
        0.4116399884223938,
        1.8752199411392212,
        1.7899999618530273
      ],
      "min": [
        0.082639999687671661,
        1.4807699918746948,
        1.5099999904632568
      ],
      "type": "VEC3"
    },
    {
      "bufferView": 1,
      "byteOffset": 18576,
      "componentType": 5126,
      "count": 48,
      "max": [
        0.70710676908493042,
        0.99619430303573608,
        0
      ],
      "min": [
        -0.99619430303573608,
        -0.99619430303573608,
        0
      ],
      "type": "VEC3"
    },
    {
      "bufferView": 0,
      "byteOffset": 4776,
      "componentType": 5125,
      "count": 72,
      "max": [
        47
      ],
      "min": [
        0
      ],
      "type": "SCALAR"
    },
    {
      "bufferView": 1,
      "byteOffset": 19152,
      "componentType": 5126,
      "count": 134,
      "max": [
        0.42445001006126404,
        1.8880399465560913,
        1.6499999761581421
      ],
      "min": [
        0.069820001721382141,
        1.473639965057373,
        1.6000000238418579
      ],
      "type": "VEC3"
    },
    {
      "bufferView": 1,
      "byteOffset": 20760,
      "componentType": 5126,
      "count": 134,
      "max": [
        0.93969231843948364,
        0.93969672918319702,
        1
      ],
      "min": [
        -0.93969231843948364,
        -0.93969672918319702,
        -1
      ],
      "type": "VEC3"
    },
    {
      "bufferView": 0,
      "byteOffset": 5064,
      "componentType": 5125,
      "count": 174,
      "max": [
        133
      ],
      "min": [
        0
      ],
      "type": "SCALAR"
    },
    {
      "bufferView": 1,
      "byteOffset": 22368,
      "componentType": 5126,
      "count": 187,
      "max": [
        0.41247999668121338,
        1.8451700210571289,
        1.75
      ],
      "min": [
        0.059999998658895493,
        1.4451700448989868,
        1
      ],
      "type": "VEC3"
    },
    {
      "bufferView": 1,
      "byteOffset": 24612,
      "componentType": 5126,
      "count": 187,
      "max": [
        1,
        1,
        1
      ],
      "min": [
        -1,
        -1,
        -1
      ],
      "type": "VEC3"
    },
    {
      "bufferView": 0,
      "byteOffset": 5760,
      "componentType": 5125,
      "count": 285,
      "max": [
        186
      ],
      "min": [
        0
      ],
      "type": "SCALAR"
    },
    {
      "bufferView": 1,
      "byteOffset": 26856,
      "componentType": 5126,
      "count": 154,
      "max": [
        0.42577001452445984,
        1.8313900232315063,
        1.7999999523162842
      ],
      "min": [
        0.08636000007390976,
        1.4919799566268921,
        1.75
      ],
      "type": "VEC3"
    },
    {
      "bufferView": 1,
      "byteOffset": 28704,
      "componentType": 5126,
      "count": 154,
      "max": [
        0.70712679624557495,
        0.70712178945541382,
        1
      ],
      "min": [
        -0.70712178945541382,
        -0.70712178945541382,
        -1
      ],
      "type": "VEC3"
    },
    {
      "bufferView": 0,
      "byteOffset": 6900,
      "componentType": 5125,
      "count": 234,
      "max": [
        153
      ],
      "min": [
        0
      ],
      "type": "SCALAR"
    },
    {
      "bufferView": 1,
      "byteOffset": 30552,
      "componentType": 5126,
      "count": 16,
      "max": [
        0.36000001430511475,
        1.8451700210571289,
        1.1499999761581421
      ],
      "min": [
        0.059999998658895493,
        1.4451700448989868,
        1.1299999952316284
      ],
      "type": "VEC3"
    },
    {
      "bufferView": 1,
      "byteOffset": 30744,
      "componentType": 5126,
      "count": 16,
      "max": [
        1,
        1,
        0
      ],
      "min": [
        -1,
        -1,
        0
      ],
      "type": "VEC3"
    },
    {
      "bufferView": 0,
      "byteOffset": 7836,
      "componentType": 5125,
      "count": 24,
      "max": [
        15
      ],
      "min": [
        0
      ],
      "type": "SCALAR"
    },
    {
      "bufferView": 1,
      "byteOffset": 30936,
      "componentType": 5126,
      "count": 1582,
      "max": [
        0.40000000596046448,
        1.3276400566101074,
        1.8700000047683716
      ],
      "min": [
        0.069130003452301025,
        0.1510699987411499,
        1
      ],
      "type": "VEC3"
    },
    {
      "bufferView": 1,
      "byteOffset": 49920,
      "componentType": 5126,
      "count": 1582,
      "max": [
        1,
        1,
        1
      ],
      "min": [
        -1,
        -1,
        -1
      ],
      "type": "VEC3"
    },
    {
      "bufferView": 0,
      "byteOffset": 7932,
      "componentType": 5125,
      "count": 2652,
      "max": [
        1581
      ],
      "min": [
        0
      ],
      "type": "SCALAR"
    },
    {
      "bufferView": 1,
      "byteOffset": 68904,
      "componentType": 5126,
      "count": 80,
      "max": [
        0.32918000221252441,
        0.57918000221252441,
        1.6299999952316284
      ],
      "min": [
        0.17081999778747559,
        0.42081999778747559,
        1.5075000524520874
      ],
      "type": "VEC3"
    },
    {
      "bufferView": 1,
      "byteOffset": 69864,
      "componentType": 5126,
      "count": 80,
      "max": [
        0.92388087511062622,
        0.92388087511062622,
        1
      ],
      "min": [
        -0.92388087511062622,
        -0.92388087511062622,
        -1
      ],
      "type": "VEC3"
    },
    {
      "bufferView": 0,
      "byteOffset": 18540,
      "componentType": 5125,
      "count": 132,
      "max": [
        79
      ],
      "min": [
        0
      ],
      "type": "SCALAR"
    },
    {
      "bufferView": 1,
      "byteOffset": 70824,
      "componentType": 5126,
      "count": 480,
      "max": [
        0.30274000763893127,
        1.0463500022888184,
        1.6510900259017944
      ],
      "min": [
        0.18286000192165375,
        0.6856200098991394,
        1.5710899829864502
      ],
      "type": "VEC3"
    },
    {
      "bufferView": 1,
      "byteOffset": 76584,
      "componentType": 5126,
      "count": 480,
      "max": [
        0.99207723140716553,
        0.97986352443695068,
        0.94352251291275024
      ],
      "min": [
        -0.99207723140716553,
        -0.97986221313476562,
        -0.94352495670318604
      ],
      "type": "VEC3"
    },
    {
      "bufferView": 0,
      "byteOffset": 19068,
      "componentType": 5125,
      "count": 480,
      "max": [
        479
      ],
      "min": [
        0
      ],
      "type": "SCALAR"
    },
    {
      "bufferView": 1,
      "byteOffset": 82344,
      "componentType": 5126,
      "count": 480,
      "max": [
        0.30570998787879944,
        1.0104800462722778,
        1.5906100273132324
      ],
      "min": [
        0.21454000473022461,
        0.73338997364044189,
        1.5106099843978882
      ],
      "type": "VEC3"
    },
    {
      "bufferView": 1,
      "byteOffset": 88104,
      "componentType": 5126,
      "count": 480,
      "max": [
        0.99207723140716553,
        0.97986376285552979,
        0.94352495670318604
      ],
      "min": [
        -0.99207723140716553,
        -0.97986221313476562,
        -0.94352495670318604
      ],
      "type": "VEC3"
    },
    {
      "bufferView": 0,
      "byteOffset": 20988,
      "componentType": 5125,
      "count": 480,
      "max": [
        479
      ],
      "min": [
        0
      ],
      "type": "SCALAR"
    },
    {
      "bufferView": 1,
      "byteOffset": 93864,
      "componentType": 5126,
      "count": 112,
      "max": [
        0.31723999977111816,
        1.3168200254440308,
        1.098080039024353
      ],
      "min": [
        0.15888999402523041,
        1.1584600210189819,
        1.0100300312042236
      ],
      "type": "VEC3"
    },
    {
      "bufferView": 1,
      "byteOffset": 95208,
      "componentType": 5126,
      "count": 112,
      "max": [
        0.90866380929946899,
        0.90866380929946899,
        -0.18074075877666473
      ],
      "min": [
        -0.90866380929946899,
        -0.90866380929946899,
        -1
      ],
      "type": "VEC3"
    },
    {
      "bufferView": 0,
      "byteOffset": 22908,
      "componentType": 5125,
      "count": 180,
      "max": [
        111
      ],
      "min": [
        0
      ],
      "type": "SCALAR"
    },
    {
      "bufferView": 1,
      "byteOffset": 96552,
      "componentType": 5126,
      "count": 160,
      "max": [
        0.38918000459671021,
        0.6499599814414978,
        1.1124999523162842
      ],
      "min": [
        0.079130001366138458,
        0.16189000010490417,
        1.0102100372314453
      ],
      "type": "VEC3"
    },
    {
      "bufferView": 1,
      "byteOffset": 98472,
      "componentType": 5126,
      "count": 160,
      "max": [
        0.92746913433074951,
        0.92746913433074951,
        1
      ],
      "min": [
        -0.92746913433074951,
        -0.92746913433074951,
        -1
      ],
      "type": "VEC3"
    },
    {
      "bufferView": 0,
      "byteOffset": 23628,
      "componentType": 5125,
      "count": 264,
      "max": [
        159
      ],
      "min": [
        0
      ],
      "type": "SCALAR"
    }
  ],
  "asset": {
    "generator": "Sketchfab (OSG glTF plugin)",
    "version": "2.0"
  },
  "bufferViews": [
    {
      "buffer": 0,
      "byteLength": 24684,
      "byteOffset": 0,
      "name": "floatBufferViews",
      "target": 34963
    },
    {
      "buffer": 0,
      "byteLength": 100392,
      "byteOffset": 24684,
      "byteStride": 12,
      "name": "floatBufferViews",
      "target": 34962
    }
  ],
  "buffers": [
    {
      "byteLength": 125076,
      "uri": "scene.bin"
    }
  ],
  "materials": [
    {
      "doubleSided": true,
      "emissiveFactor": [
        0,
        0,
        0
      ],
      "name": "Wood",
      "pbrMetallicRoughness": {
        "baseColorFactor": [
          0.12823618949999999,
          0.066952794800000007,
          0.0434705913,
          1
        ],
        "metallicFactor": 0,
        "roughnessFactor": 0.59999999999999998
      }
    },
    {
      "doubleSided": true,
      "emissiveFactor": [
        0,
        0,
        0
      ],
      "name": "Ceramic",
      "pbrMetallicRoughness": {
        "baseColorFactor": [
          0.74839329720000003,
          0.69344663620000002,
          0.65152227880000002,
          1
        ],
        "metallicFactor": 0,
        "roughnessFactor": 0.59999999999999998
      }
    },
    {
      "doubleSided": true,
      "emissiveFactor": [
        0,
        0,
        0
      ],
      "name": "DarkBlue",
      "pbrMetallicRoughness": {
        "baseColorFactor": [
          0,
          0.016983609600000001,
          0.083528079099999999,
          1
        ],
        "metallicFactor": 0,
        "roughnessFactor": 0.59999999999999998
      }
    },
    {
      "doubleSided": true,
      "emissiveFactor": [
        0,
        0,
        0
      ],
      "name": "Paper",
      "pbrMetallicRoughness": {
        "baseColorFactor": [
          0.78739178180000002,
          0.65997022390000004,
          0.53831225630000001,
          1
        ],
        "metallicFactor": 0,
        "roughnessFactor": 0.59999999999999998
      }
    },
    {
      "doubleSided": true,
      "emissiveFactor": [
        0,
        0,
        0
      ],
      "name": "DarkGreen",
      "pbrMetallicRoughness": {
        "baseColorFactor": [
          0,
          0.052215345199999999,
          0.0090018175999999998,
          1
        ],
        "metallicFactor": 0,
        "roughnessFactor": 0.59999999999999998
      }
    },
    {
      "doubleSided": true,
      "emissiveFactor": [
        0,
        0,
        0
      ],
      "name": "DarkRed",
      "pbrMetallicRoughness": {
        "baseColorFactor": [
          0.052215345199999999,
          0.00049697119999999998,
          0,
          1
        ],
        "metallicFactor": 0,
        "roughnessFactor": 0.59999999999999998
      }
    },
    {
      "doubleSided": true,
      "emissiveFactor": [
        0,
        0,
        0
      ],
      "name": "DarkBrown",
      "pbrMetallicRoughness": {
        "baseColorFactor": [
          0.033100590100000001,
          0.0136899734,
          0,
          1
        ],
        "metallicFactor": 0,
        "roughnessFactor": 0.59999999999999998
      }
    },
    {
      "doubleSided": true,
      "name": "Gold",
      "pbrMetallicRoughness": {
        "baseColorFactor": [
          0.60382676120000001,
          0.27667182680000002,
          0.011693988900000001,
          1
        ],
        "metallicFactor": 0.5,
        "roughnessFactor": 0.59999999999999998
      }
    },
    {
      "alphaMode": "BLEND",
      "doubleSided": true,
      "emissiveFactor": [
        0,
        0,
        0
      ],
      "name": "Glass",
      "pbrMetallicRoughness": {
        "baseColorFactor": [
          0.55972433089999996,
          0.80000007149999997,
          0.80000007149999997,
          0.25
        ],
        "metallicFactor": 0,
        "roughnessFactor": 0.59999999999999998
      }
    },
    {
      "doubleSided": true,
      "emissiveFactor": [
        0,
        0,
        0
      ],
      "name": "Yellow",
      "pbrMetallicRoughness": {
        "baseColorFactor": [
          0.96468621489999995,
          0.4851499796,
          0.0251868591,
          1
        ],
        "metallicFactor": 0,
        "roughnessFactor": 0.59999999999999998
      }
    },
    {
      "doubleSided": true,
      "emissiveFactor": [
        0,
        0,
        0
      ],
      "name": "Blue",
      "pbrMetallicRoughness": {
        "baseColorFactor": [
          0.0079663657000000002,
          0.13592751319999999,
          0.3343166709,
          1
        ],
        "metallicFactor": 0,
        "roughnessFactor": 0.59999999999999998
      }
    },
    {
      "doubleSided": true,
      "emissiveFactor": [
        0,
        0,
        0
      ],
      "name": "Red",
      "pbrMetallicRoughness": {
        "baseColorFactor": [
          0.53327631949999998,
          0.058335699099999999,
          0.039556752899999999,
          1
        ],
        "metallicFactor": 0,
        "roughnessFactor": 0.59999999999999998
      }
    },
    {
      "doubleSided": true,
      "emissiveFactor": [
        1,
        0.94613570444999995,
        0.057306557399999999
      ],
      "name": "GlowYellow",
      "pbrMetallicRoughness": {
        "baseColorFactor": [
          0.80000007149999997,
          0.63114887480000004,
          0.038792114699999998,
          1
        ],
        "metallicFactor": 0,
        "roughnessFactor": 0.59999999999999998
      }
    },
    {
      "doubleSided": true,
      "emissiveFactor": [
        0.077763920040000004,
        0.56823779531999996,
        0.95892328559999995
      ],
      "name": "GlowBlue",
      "pbrMetallicRoughness": {
        "baseColorFactor": [
          0.065299488599999997,
          0.47492536899999999,
          0.80000007149999997,
          1
        ],
        "metallicFactor": 0,
        "roughnessFactor": 0.59999999999999998
      }
    }
  ],
  "meshes": [
    {
      "name": "ShelfWall_0.5x2x2_proxy.001_0",
      "primitives": [
        {
          "attributes": {
            "NORMAL": 1,
            "POSITION": 0
          },
          "indices": 2,
          "material": 0,
          "mode": 4
        }
      ]
    },
    {
      "name": "ShelfWall_0.5x2x2_proxy.001_1",
      "primitives": [
        {
          "attributes": {
            "NORMAL": 4,
            "POSITION": 3
          },
          "indices": 5,
          "material": 1,
          "mode": 4
        }
      ]
    },
    {
      "name": "ShelfWall_0.5x2x2_proxy.001_2",
      "primitives": [
        {
          "attributes": {
            "NORMAL": 7,
            "POSITION": 6
          },
          "indices": 8,
          "material": 2,
          "mode": 4
        }
      ]
    },
    {
      "name": "ShelfWall_0.5x2x2_proxy.001_3",
      "primitives": [
        {
          "attributes": {
            "NORMAL": 10,
            "POSITION": 9
          },
          "indices": 11,
          "material": 3,
          "mode": 4
        }
      ]
    },
    {
      "name": "ShelfWall_0.5x2x2_proxy.001_4",
      "primitives": [
        {
          "attributes": {
            "NORMAL": 13,
            "POSITION": 12
          },
          "indices": 14,
          "material": 4,
          "mode": 4
        }
      ]
    },
    {
      "name": "ShelfWall_0.5x2x2_proxy.001_5",
      "primitives": [
        {
          "attributes": {
            "NORMAL": 16,
            "POSITION": 15
          },
          "indices": 17,
          "material": 5,
          "mode": 4
        }
      ]
    },
    {
      "name": "ShelfWall_0.5x2x2_proxy.001_6",
      "primitives": [
        {
          "attributes": {
            "NORMAL": 19,
            "POSITION": 18
          },
          "indices": 20,
          "material": 6,
          "mode": 4
        }
      ]
    },
    {
      "name": "ShelfWall_0.5x2x2_proxy.001_7",
      "primitives": [
        {
          "attributes": {
            "NORMAL": 22,
            "POSITION": 21
          },
          "indices": 23,
          "material": 7,
          "mode": 4
        }
      ]
    },
    {
      "name": "ShelfWall_0.5x2x2_proxy.001_8",
      "primitives": [
        {
          "attributes": {
            "NORMAL": 25,
            "POSITION": 24
          },
          "indices": 26,
          "material": 8,
          "mode": 4
        }
      ]
    },
    {
      "name": "ShelfWall_0.5x2x2_proxy.001_9",
      "primitives": [
        {
          "attributes": {
            "NORMAL": 28,
            "POSITION": 27
          },
          "indices": 29,
          "material": 9,
          "mode": 4
        }
      ]
    },
    {
      "name": "ShelfWall_0.5x2x2_proxy.001_10",
      "primitives": [
        {
          "attributes": {
            "NORMAL": 31,
            "POSITION": 30
          },
          "indices": 32,
          "material": 10,
          "mode": 4
        }
      ]
    },
    {
      "name": "ShelfWall_0.5x2x2_proxy.001_11",
      "primitives": [
        {
          "attributes": {
            "NORMAL": 34,
            "POSITION": 33
          },
          "indices": 35,
          "material": 11,
          "mode": 4
        }
      ]
    },
    {
      "name": "ShelfWall_0.5x2x2_proxy.001_12",
      "primitives": [
        {
          "attributes": {
            "NORMAL": 37,
            "POSITION": 36
          },
          "indices": 38,
          "material": 12,
          "mode": 4
        }
      ]
    },
    {
      "name": "ShelfWall_0.5x2x2_proxy.001_13",
      "primitives": [
        {
          "attributes": {
            "NORMAL": 40,
            "POSITION": 39
          },
          "indices": 41,
          "material": 13,
          "mode": 4
        }
      ]
    }
  ],
  "nodes": [
    {
      "children": [
        1
      ],
      "name": "RootNode (gltf orientation matrix)",
      "rotation": [
        -0.70710678118654746,
        -0,
        -0,
        0.70710678118654757
      ]
    },
    {
      "children": [
        2
      ],
      "name": "RootNode (model correction matrix)"
    },
    {
      "children": [
        3
      ],
      "name": "Root"
    },
    {
      "children": [
        4
      ],
      "name": "ShelfWall_0.5x2x2_proxy.001"
    },
    {
      "children": [
        5,
        6,
        7,
        8,
        9,
        10,
        11,
        12,
        13,
        14,
        15,
        16,
        17,
        18
      ],
      "name": "Geode"
    },
    {
      "mesh": 0,
      "name": "ShelfWall_0.5x2x2_proxy.001_0"
    },
    {
      "mesh": 1,
      "name": "ShelfWall_0.5x2x2_proxy.001_1"
    },
    {
      "mesh": 2,
      "name": "ShelfWall_0.5x2x2_proxy.001_2"
    },
    {
      "mesh": 3,
      "name": "ShelfWall_0.5x2x2_proxy.001_3"
    },
    {
      "mesh": 4,
      "name": "ShelfWall_0.5x2x2_proxy.001_4"
    },
    {
      "mesh": 5,
      "name": "ShelfWall_0.5x2x2_proxy.001_5"
    },
    {
      "mesh": 6,
      "name": "ShelfWall_0.5x2x2_proxy.001_6"
    },
    {
      "mesh": 7,
      "name": "ShelfWall_0.5x2x2_proxy.001_7"
    },
    {
      "mesh": 8,
      "name": "ShelfWall_0.5x2x2_proxy.001_8"
    },
    {
      "mesh": 9,
      "name": "ShelfWall_0.5x2x2_proxy.001_9"
    },
    {
      "mesh": 10,
      "name": "ShelfWall_0.5x2x2_proxy.001_10"
    },
    {
      "mesh": 11,
      "name": "ShelfWall_0.5x2x2_proxy.001_11"
    },
    {
      "mesh": 12,
      "name": "ShelfWall_0.5x2x2_proxy.001_12"
    },
    {
      "mesh": 13,
      "name": "ShelfWall_0.5x2x2_proxy.001_13"
    }
  ],
  "scene": 0,
  "scenes": [
    {
      "name": "OSG_Scene",
      "nodes": [
        0
      ]
    }
  ]
}

