{
  "accessors": [
    {
      "bufferView": 1,
      "componentType": 5126,
      "count": 344,
      "max": [
        0.40000000596046448,
        0.40000000596046448,
        2.0999999046325684
      ],
      "min": [
        -0.40000000596046448,
        -0.40000000596046448,
        0
      ],
      "type": "VEC3"
    },
    {
      "bufferView": 1,
      "byteOffset": 4128,
      "componentType": 5126,
      "count": 344,
      "max": [
        0.92388087511062622,
        0.92388087511062622,
        1
      ],
      "min": [
        -0.92388087511062622,
        -0.92388087511062622,
        -1
      ],
      "type": "VEC3"
    },
    {
      "bufferView": 0,
      "componentType": 5125,
      "count": 672,
      "max": [
        343
      ],
      "min": [
        0
      ],
      "type": "SCALAR"
    },
    {
      "bufferView": 1,
      "byteOffset": 8256,
      "componentType": 5126,
      "count": 576,
      "max": [
        0.72832000255584717,
        1,
        2.8283200263977051
      ],
      "min": [
        -0.72832000255584717,
        -1,
        1.3716800212860107
      ],
      "type": "VEC3"
    },
    {
      "bufferView": 1,
      "byteOffset": 15168,
      "componentType": 5126,
      "count": 576,
      "max": [
        0.9807855486869812,
        0.9807855486869812,
        1
      ],
      "min": [
        -0.9807855486869812,
        -0.9807855486869812,
        -1
      ],
      "type": "VEC3"
    },
    {
      "bufferView": 0,
      "byteOffset": 2688,
      "componentType": 5125,
      "count": 1152,
      "max": [
        575
      ],
      "min": [
        0
      ],
      "type": "SCALAR"
    },
    {
      "bufferView": 1,
      "byteOffset": 22080,
      "componentType": 5126,
      "count": 48,
      "max": [
        0.090000003576278687,
        0.090000003576278687,
        2.4000000953674316
      ],
      "min": [
        -0.090000003576278687,
        -0.090000003576278687,
        1.7999999523162842
      ],
      "type": "VEC3"
    },
    {
      "bufferView": 1,
      "byteOffset": 22656,
      "componentType": 5126,
      "count": 48,
      "max": [
        0.89031755924224854,
        0.89031755924224854,
        0.26708924770355225
      ],
      "min": [
        -0.89031755924224854,
        -0.89031755924224854,
        -0.26708924770355225
      ],
      "type": "VEC3"
    },
    {
      "bufferView": 0,
      "byteOffset": 7296,
      "componentType": 5125,
      "count": 48,
      "max": [
        47
      ],
      "min": [
        0
      ],
      "type": "SCALAR"
    }
  ],
  "asset": {
    "generator": "Sketchfab (OSG glTF plugin)",
    "version": "2.0"
  },
  "bufferViews": [
    {
      "buffer": 0,
      "byteLength": 7488,
      "byteOffset": 0,
      "name": "floatBufferViews",
      "target": 34963
    },
    {
      "buffer": 0,
      "byteLength": 23232,
      "byteOffset": 7488,
      "byteStride": 12,
      "name": "floatBufferViews",
      "target": 34962
    }
  ],
  "buffers": [
    {
      "byteLength": 30720,
      "uri": "scene.bin"
    }
  ],
  "materials": [
    {
      "doubleSided": true,
      "emissiveFactor": [
        0,
        0,
        0
      ],
      "name": "Wood.003",
      "pbrMetallicRoughness": {
        "baseColorFactor": [
          0.12823618949999999,
          0.066952794800000007,
          0.0434705913,
          1
        ],
        "metallicFactor": 0,
        "roughnessFactor": 0.59999999999999998
      }
    },
    {
      "doubleSided": true,
      "name": "Gold",
      "pbrMetallicRoughness": {
        "baseColorFactor": [
          0.60382676120000001,
          0.27667182680000002,
          0.011693988900000001,
          1
        ],
        "metallicFactor": 0.5,
        "roughnessFactor": 0.59999999999999998
      }
    },
    {
      "alphaMode": "BLEND",
      "doubleSided": true,
      "emissiveFactor": [
        0,
        0.39955136899999999,
        0.0040115964999999998
      ],
      "name": "GlowGreen",
      "pbrMetallicRoughness": {
        "baseColorFactor": [
          0,
          0.80000007149999997,
          0.0082854981999999997,
          0.69999999999999996
        ],
        "metallicFactor": 0,
        "roughnessFactor": 0.59999999999999998
      }
    }
  ],
  "meshes": [
    {
      "name": "Crystal_2x2x3_0",
      "primitives": [
        {
          "attributes": {
            "NORMAL": 1,
            "POSITION": 0
          },
          "indices": 2,
          "material": 0,
          "mode": 4
        }
      ]
    },
    {
      "name": "Crystal_2x2x3_1",
      "primitives": [
        {
          "attributes": {
            "NORMAL": 4,
            "POSITION": 3
          },
          "indices": 5,
          "material": 1,
          "mode": 4
        }
      ]
    },
    {
      "name": "Crystal_2x2x3_2",
      "primitives": [
        {
          "attributes": {
            "NORMAL": 7,
            "POSITION": 6
          },
          "indices": 8,
          "material": 2,
          "mode": 4
        }
      ]
    }
  ],
  "nodes": [
    {
      "children": [
        1
      ],
      "name": "RootNode (gltf orientation matrix)",
      "rotation": [
        -0.70710678118654746,
        -0,
        -0,
        0.70710678118654757
      ]
    },
    {
      "children": [
        2
      ],
      "name": "RootNode (model correction matrix)"
    },
    {
      "children": [
        3
      ],
      "name": "Root"
    },
    {
      "children": [
        4
      ],
      "name": "Crystal_2x2x3"
    },
    {
      "children": [
        5,
        6,
        7
      ],
      "name": "Geode"
    },
    {
      "mesh": 0,
      "name": "Crystal_2x2x3_0"
    },
    {
      "mesh": 1,
      "name": "Crystal_2x2x3_1"
    },
    {
      "mesh": 2,
      "name": "Crystal_2x2x3_2"
    }
  ],
  "scene": 0,
  "scenes": [
    {
      "name": "OSG_Scene",
      "nodes": [
        0
      ]
    }
  ]
}

