{
  "accessors": [
    {
      "bufferView": 1,
      "componentType": 5126,
      "count": 672,
      "max": [
        1.0440800189971924,
        0.48774999380111694,
        0.856190025806427
      ],
      "min": [
        -0.62426000833511353,
        -1.0279899835586548,
        0
      ],
      "type": "VEC3"
    },
    {
      "bufferView": 1,
      "byteOffset": 8064,
      "componentType": 5126,
      "count": 672,
      "max": [
        1,
        1,
        1
      ],
      "min": [
        -1,
        -1,
        -1
      ],
      "type": "VEC3"
    },
    {
      "bufferView": 0,
      "componentType": 5125,
      "count": 1080,
      "max": [
        671
      ],
      "min": [
        0
      ],
      "type": "SCALAR"
    },
    {
      "bufferView": 1,
      "byteOffset": 16128,
      "componentType": 5126,
      "count": 768,
      "max": [
        0.98308002948760986,
        0.50603997707366943,
        0.87672001123428345
      ],
      "min": [
        -0.64254999160766602,
        -1.0504800081253052,
        -0
      ],
      "type": "VEC3"
    },
    {
      "bufferView": 1,
      "byteOffset": 25344,
      "componentType": 5126,
      "count": 768,
      "max": [
        1,
        1,
        1
      ],
      "min": [
        -1,
        -1,
        -1
      ],
      "type": "VEC3"
    },
    {
      "bufferView": 0,
      "byteOffset": 4320,
      "componentType": 5125,
      "count": 1728,
      "max": [
        767
      ],
      "min": [
        0
      ],
      "type": "SCALAR"
    }
  ],
  "asset": {
    "generator": "Sketchfab (OSG glTF plugin)",
    "version": "2.0"
  },
  "bufferViews": [
    {
      "buffer": 0,
      "byteLength": 11232,
      "byteOffset": 0,
      "name": "floatBufferViews",
      "target": 34963
    },
    {
      "buffer": 0,
      "byteLength": 34560,
      "byteOffset": 11232,
      "byteStride": 12,
      "name": "floatBufferViews",
      "target": 34962
    }
  ],
  "buffers": [
    {
      "byteLength": 45792,
      "uri": "scene.bin"
    }
  ],
  "materials": [
    {
      "doubleSided": true,
      "emissiveFactor": [
        0,
        0,
        0
      ],
      "name": "Wood",
      "pbrMetallicRoughness": {
        "baseColorFactor": [
          0.12823618949999999,
          0.066952794800000007,
          0.0434705913,
          1
        ],
        "metallicFactor": 0,
        "roughnessFactor": 0.59999999999999998
      }
    },
    {
      "doubleSided": true,
      "emissiveFactor": [
        0,
        0,
        0
      ],
      "name": "Metal",
      "pbrMetallicRoughness": {
        "baseColorFactor": [
          0.2203762531,
          0.22507911920000001,
          0.23954643310000001,
          1
        ],
        "metallicFactor": 0.5,
        "roughnessFactor": 0.59999999999999998
      }
    }
  ],
  "meshes": [
    {
      "name": "Barrel_1x1x1_proxy.002_0",
      "primitives": [
        {
          "attributes": {
            "NORMAL": 1,
            "POSITION": 0
          },
          "indices": 2,
          "material": 0,
          "mode": 4
        }
      ]
    },
    {
      "name": "Barrel_1x1x1_proxy.002_1",
      "primitives": [
        {
          "attributes": {
            "NORMAL": 4,
            "POSITION": 3
          },
          "indices": 5,
          "material": 1,
          "mode": 4
        }
      ]
    }
  ],
  "nodes": [
    {
      "children": [
        1
      ],
      "name": "RootNode (gltf orientation matrix)",
      "rotation": [
        -0.70710678118654746,
        -0,
        -0,
        0.70710678118654757
      ]
    },
    {
      "children": [
        2
      ],
      "name": "RootNode (model correction matrix)"
    },
    {
      "children": [
        3
      ],
      "name": "Root"
    },
    {
      "children": [
        4
      ],
      "matrix": [
        1.0778599999999998,
        0.44646000000000008,
        0,
        0,
        -0.44646000000000008,
        1.0778599999999998,
        0,
        0,
        0,
        0,
        1.125,
        0,
        0,
        0,
        0,
        1
      ],
      "name": "Barrel_1x1x1_proxy.002"
    },
    {
      "children": [
        5,
        6
      ],
      "name": "Geode"
    },
    {
      "mesh": 0,
      "name": "Barrel_1x1x1_proxy.002_0"
    },
    {
      "mesh": 1,
      "name": "Barrel_1x1x1_proxy.002_1"
    }
  ],
  "scene": 0,
  "scenes": [
    {
      "name": "OSG_Scene",
      "nodes": [
        0
      ]
    }
  ]
}

