{
  "accessors": [
    {
      "bufferView": 1,
      "componentType": 5126,
      "count": 441,
      "max": [
        0.69999998807907104,
        -0,
        1.3647799491882324
      ],
      "min": [
        0,
        -2,
        -0
      ],
      "type": "VEC3"
    },
    {
      "bufferView": 1,
      "byteOffset": 5292,
      "componentType": 5126,
      "count": 441,
      "max": [
        1,
        1,
        1
      ],
      "min": [
        -1,
        -1,
        -1
      ],
      "type": "VEC3"
    },
    {
      "bufferView": 0,
      "componentType": 5125,
      "count": 960,
      "max": [
        440
      ],
      "min": [
        0
      ],
      "type": "SCALAR"
    },
    {
      "bufferView": 1,
      "byteOffset": 10584,
      "componentType": 5126,
      "count": 416,
      "max": [
        0.54799997806549072,
        -1.4904400110244751,
        1.0947799682617188
      ],
      "min": [
        0.32253998517990112,
        -1.7651599645614624,
        0.82477998733520508
      ],
      "type": "VEC3"
    },
    {
      "bufferView": 1,
      "byteOffset": 15576,
      "componentType": 5126,
      "count": 416,
      "max": [
        0.92388087511062622,
        0.92388087511062622,
        1
      ],
      "min": [
        -0.92388087511062622,
        -0.92388087511062622,
        -1
      ],
      "type": "VEC3"
    },
    {
      "bufferView": 0,
      "byteOffset": 3840,
      "componentType": 5125,
      "count": 660,
      "max": [
        415
      ],
      "min": [
        0
      ],
      "type": "SCALAR"
    },
    {
      "bufferView": 1,
      "byteOffset": 20568,
      "componentType": 5126,
      "count": 240,
      "max": [
        0.32317999005317688,
        -0.066239997744560242,
        1.25
      ],
      "min": [
        0.053180001676082611,
        -0.33623999357223511,
        0.80000001192092896
      ],
      "type": "VEC3"
    },
    {
      "bufferView": 1,
      "byteOffset": 23448,
      "componentType": 5126,
      "count": 240,
      "max": [
        0.92388087511062622,
        0.92388087511062622,
        1
      ],
      "min": [
        -0.92388087511062622,
        -0.92388087511062622,
        -1
      ],
      "type": "VEC3"
    },
    {
      "bufferView": 0,
      "byteOffset": 6480,
      "componentType": 5125,
      "count": 372,
      "max": [
        239
      ],
      "min": [
        0
      ],
      "type": "SCALAR"
    },
    {
      "bufferView": 1,
      "byteOffset": 26328,
      "componentType": 5126,
      "count": 1064,
      "max": [
        0.58499997854232788,
        -0.048700001090764999,
        1.3497799634933472
      ],
      "min": [
        0.059999998658895493,
        -1.9342900514602661,
        0.42570999264717102
      ],
      "type": "VEC3"
    },
    {
      "bufferView": 1,
      "byteOffset": 39096,
      "componentType": 5126,
      "count": 1064,
      "max": [
        1,
        1,
        1
      ],
      "min": [
        -1,
        -1,
        -1
      ],
      "type": "VEC3"
    },
    {
      "bufferView": 0,
      "byteOffset": 7968,
      "componentType": 5125,
      "count": 1806,
      "max": [
        1063
      ],
      "min": [
        0
      ],
      "type": "SCALAR"
    },
    {
      "bufferView": 1,
      "byteOffset": 51864,
      "componentType": 5126,
      "count": 228,
      "max": [
        0.35460001230239868,
        -0.048700001090764999,
        1.049780011177063
      ],
      "min": [
        0.10242000222206116,
        -1.9342900514602661,
        0.42570999264717102
      ],
      "type": "VEC3"
    },
    {
      "bufferView": 1,
      "byteOffset": 54600,
      "componentType": 5126,
      "count": 228,
      "max": [
        0.92388087511062622,
        1,
        1
      ],
      "min": [
        -0.92388087511062622,
        -1,
        -1
      ],
      "type": "VEC3"
    },
    {
      "bufferView": 0,
      "byteOffset": 15192,
      "componentType": 5125,
      "count": 342,
      "max": [
        227
      ],
      "min": [
        0
      ],
      "type": "SCALAR"
    },
    {
      "bufferView": 1,
      "byteOffset": 57336,
      "componentType": 5126,
      "count": 184,
      "max": [
        0.39546000957489014,
        -0.54846000671386719,
        1.0700000524520874
      ],
      "min": [
        0.24546000361442566,
        -0.81845998764038086,
        0.80000001192092896
      ],
      "type": "VEC3"
    },
    {
      "bufferView": 1,
      "byteOffset": 59544,
      "componentType": 5126,
      "count": 184,
      "max": [
        1,
        1,
        1
      ],
      "min": [
        -1,
        -1,
        -1
      ],
      "type": "VEC3"
    },
    {
      "bufferView": 0,
      "byteOffset": 16560,
      "componentType": 5125,
      "count": 312,
      "max": [
        183
      ],
      "min": [
        0
      ],
      "type": "SCALAR"
    },
    {
      "bufferView": 1,
      "byteOffset": 61752,
      "componentType": 5126,
      "count": 64,
      "max": [
        0.3504599928855896,
        -0.56345999240875244,
        1.2200000286102295
      ],
      "min": [
        0.29045999050140381,
        -0.80346000194549561,
        1.0399999618530273
      ],
      "type": "VEC3"
    },
    {
      "bufferView": 1,
      "byteOffset": 62520,
      "componentType": 5126,
      "count": 64,
      "max": [
        1,
        1,
        1
      ],
      "min": [
        -1,
        -1,
        -1
      ],
      "type": "VEC3"
    },
    {
      "bufferView": 0,
      "byteOffset": 17808,
      "componentType": 5125,
      "count": 96,
      "max": [
        63
      ],
      "min": [
        0
      ],
      "type": "SCALAR"
    },
    {
      "bufferView": 1,
      "byteOffset": 63288,
      "componentType": 5126,
      "count": 96,
      "max": [
        0.36046001315116882,
        -0.55346000194549561,
        1.3500000238418579
      ],
      "min": [
        0.28046000003814697,
        -0.81345999240875244,
        1.1499999761581421
      ],
      "type": "VEC3"
    },
    {
      "bufferView": 1,
      "byteOffset": 64440,
      "componentType": 5126,
      "count": 96,
      "max": [
        0.66666781902313232,
        0.66666781902313232,
        1
      ],
      "min": [
        -0.66666781902313232,
        -0.66666781902313232,
        -1
      ],
      "type": "VEC3"
    },
    {
      "bufferView": 0,
      "byteOffset": 18192,
      "componentType": 5125,
      "count": 108,
      "max": [
        95
      ],
      "min": [
        0
      ],
      "type": "SCALAR"
    },
    {
      "bufferView": 1,
      "byteOffset": 65592,
      "componentType": 5126,
      "count": 144,
      "max": [
        0.62716001272201538,
        -1.3728400468826294,
        0.86000001430511475
      ],
      "min": [
        0.072839997708797455,
        -1.9271600246429443,
        0.80000001192092896
      ],
      "type": "VEC3"
    },
    {
      "bufferView": 1,
      "byteOffset": 67320,
      "componentType": 5126,
      "count": 144,
      "max": [
        0.65673857927322388,
        0.65673857927322388,
        1
      ],
      "min": [
        -0.65673857927322388,
        -0.65673857927322388,
        -1
      ],
      "type": "VEC3"
    },
    {
      "bufferView": 0,
      "byteOffset": 18624,
      "componentType": 5125,
      "count": 246,
      "max": [
        143
      ],
      "min": [
        0
      ],
      "type": "SCALAR"
    },
    {
      "bufferView": 1,
      "byteOffset": 69048,
      "componentType": 5126,
      "count": 192,
      "max": [
        0.20848999917507172,
        -1.1399600505828857,
        1.0362499952316284
      ],
      "min": [
        0.038780000060796738,
        -1.3096599578857422,
        0.80000001192092896
      ],
      "type": "VEC3"
    },
    {
      "bufferView": 1,
      "byteOffset": 71352,
      "componentType": 5126,
      "count": 192,
      "max": [
        0.98057997226715088,
        0.98058182001113892,
        1
      ],
      "min": [
        -0.98057997226715088,
        -0.98058182001113892,
        -1
      ],
      "type": "VEC3"
    },
    {
      "bufferView": 0,
      "byteOffset": 19608,
      "componentType": 5125,
      "count": 264,
      "max": [
        191
      ],
      "min": [
        0
      ],
      "type": "SCALAR"
    },
    {
      "bufferView": 1,
      "byteOffset": 73656,
      "componentType": 5126,
      "count": 40,
      "max": [
        0.14441999793052673,
        -1.2040200233459473,
        1.0812499523162842
      ],
      "min": [
        0.10284999758005142,
        -1.2455999851226807,
        1.0362499952316284
      ],
      "type": "VEC3"
    },
    {
      "bufferView": 1,
      "byteOffset": 74136,
      "componentType": 5126,
      "count": 40,
      "max": [
        1,
        1,
        1
      ],
      "min": [
        -1,
        -1,
        0
      ],
      "type": "VEC3"
    },
    {
      "bufferView": 0,
      "byteOffset": 20664,
      "componentType": 5125,
      "count": 66,
      "max": [
        39
      ],
      "min": [
        0
      ],
      "type": "SCALAR"
    }
  ],
  "asset": {
    "generator": "Sketchfab (OSG glTF plugin)",
    "version": "2.0"
  },
  "bufferViews": [
    {
      "buffer": 0,
      "byteLength": 20928,
      "byteOffset": 0,
      "name": "floatBufferViews",
      "target": 34963
    },
    {
      "buffer": 0,
      "byteLength": 74616,
      "byteOffset": 20928,
      "byteStride": 12,
      "name": "floatBufferViews",
      "target": 34962
    }
  ],
  "buffers": [
    {
      "byteLength": 95544,
      "uri": "scene.bin"
    }
  ],
  "materials": [
    {
      "doubleSided": true,
      "emissiveFactor": [
        0,
        0,
        0
      ],
      "name": "Wood",
      "pbrMetallicRoughness": {
        "baseColorFactor": [
          0.12823618949999999,
          0.066952794800000007,
          0.0434705913,
          1
        ],
        "metallicFactor": 0,
        "roughnessFactor": 0.59999999999999998
      }
    },
    {
      "alphaMode": "BLEND",
      "doubleSided": true,
      "emissiveFactor": [
        0,
        0,
        0
      ],
      "name": "Glass",
      "pbrMetallicRoughness": {
        "baseColorFactor": [
          0.55972433089999996,
          0.80000007149999997,
          0.80000007149999997,
          0.40000000000000002
        ],
        "metallicFactor": 0,
        "roughnessFactor": 0.59999999999999998
      }
    },
    {
      "alphaMode": "BLEND",
      "doubleSided": true,
      "emissiveFactor": [
        0,
        0,
        0
      ],
      "name": "GlassBrown",
      "pbrMetallicRoughness": {
        "baseColorFactor": [
          0.0159958415,
          0.0031384970000000001,
          2.1999999999999998e-09,
          0.90000000000000002
        ],
        "metallicFactor": 0,
        "roughnessFactor": 0.59999999999999998
      }
    },
    {
      "alphaMode": "BLEND",
      "doubleSided": true,
      "emissiveFactor": [
        0,
        0,
        0
      ],
      "name": "GlassGreen",
      "pbrMetallicRoughness": {
        "baseColorFactor": [
          0.0066938967999999998,
          0.015906054499999999,
          0,
          0.90000000000000002
        ],
        "metallicFactor": 0,
        "roughnessFactor": 0.59999999999999998
      }
    },
    {
      "doubleSided": true,
      "emissiveFactor": [
        0,
        0,
        0
      ],
      "name": "Paper",
      "pbrMetallicRoughness": {
        "baseColorFactor": [
          0.78739178180000002,
          0.65997022390000004,
          0.53831225630000001,
          1
        ],
        "metallicFactor": 0,
        "roughnessFactor": 0.59999999999999998
      }
    },
    {
      "doubleSided": true,
      "name": "Gold",
      "pbrMetallicRoughness": {
        "baseColorFactor": [
          0.60382676120000001,
          0.27667182680000002,
          0.011693988900000001,
          1
        ],
        "metallicFactor": 0.5,
        "roughnessFactor": 0.59999999999999998
      }
    },
    {
      "alphaMode": "BLEND",
      "doubleSided": true,
      "emissiveFactor": [
        0,
        0,
        0
      ],
      "name": "Candle",
      "pbrMetallicRoughness": {
        "baseColorFactor": [
          1,
          1,
          1,
          0.90000000000000002
        ],
        "metallicFactor": 0,
        "roughnessFactor": 0.59999999999999998
      }
    },
    {
      "doubleSided": true,
      "emissiveFactor": [
        1,
        0.66490307260000003,
        0.1089605528
      ],
      "name": "CandleFlame",
      "pbrMetallicRoughness": {
        "baseColorFactor": [
          0.80000007149999997,
          0.33398842810000001,
          0.054717320899999998,
          1
        ],
        "metallicFactor": 0,
        "roughnessFactor": 0.59999999999999998
      }
    },
    {
      "doubleSided": true,
      "emissiveFactor": [
        0,
        0,
        0
      ],
      "name": "Ceramic",
      "pbrMetallicRoughness": {
        "baseColorFactor": [
          0.74839329720000003,
          0.69344663620000002,
          0.65152227880000002,
          1
        ],
        "metallicFactor": 0,
        "roughnessFactor": 0.59999999999999998
      }
    },
    {
      "alphaMode": "BLEND",
      "doubleSided": true,
      "emissiveFactor": [
        0,
        0,
        0
      ],
      "name": "GlassYellow",
      "pbrMetallicRoughness": {
        "baseColorFactor": [
          0.0219780132,
          0.017360404100000001,
          1.15e-08,
          0.90000000000000002
        ],
        "metallicFactor": 0,
        "roughnessFactor": 0.59999999999999998
      }
    },
    {
      "doubleSided": true,
      "emissiveFactor": [
        0,
        0,
        0
      ],
      "name": "PotteryDark",
      "pbrMetallicRoughness": {
        "baseColorFactor": [
          0.36300140619999999,
          0.41362556820000002,
          0.4671932459,
          1
        ],
        "metallicFactor": 0,
        "roughnessFactor": 0.59999999999999998
      }
    }
  ],
  "meshes": [
    {
      "name": "Shelf_2x1x1_proxy.001_0",
      "primitives": [
        {
          "attributes": {
            "NORMAL": 1,
            "POSITION": 0
          },
          "indices": 2,
          "material": 0,
          "mode": 4
        }
      ]
    },
    {
      "name": "Shelf_2x1x1_proxy.001_1",
      "primitives": [
        {
          "attributes": {
            "NORMAL": 4,
            "POSITION": 3
          },
          "indices": 5,
          "material": 1,
          "mode": 4
        }
      ]
    },
    {
      "name": "Shelf_2x1x1_proxy.001_2",
      "primitives": [
        {
          "attributes": {
            "NORMAL": 7,
            "POSITION": 6
          },
          "indices": 8,
          "material": 2,
          "mode": 4
        }
      ]
    },
    {
      "name": "Shelf_2x1x1_proxy.001_3",
      "primitives": [
        {
          "attributes": {
            "NORMAL": 10,
            "POSITION": 9
          },
          "indices": 11,
          "material": 3,
          "mode": 4
        }
      ]
    },
    {
      "name": "Shelf_2x1x1_proxy.001_4",
      "primitives": [
        {
          "attributes": {
            "NORMAL": 13,
            "POSITION": 12
          },
          "indices": 14,
          "material": 4,
          "mode": 4
        }
      ]
    },
    {
      "name": "Shelf_2x1x1_proxy.001_5",
      "primitives": [
        {
          "attributes": {
            "NORMAL": 16,
            "POSITION": 15
          },
          "indices": 17,
          "material": 5,
          "mode": 4
        }
      ]
    },
    {
      "name": "Shelf_2x1x1_proxy.001_6",
      "primitives": [
        {
          "attributes": {
            "NORMAL": 19,
            "POSITION": 18
          },
          "indices": 20,
          "material": 6,
          "mode": 4
        }
      ]
    },
    {
      "name": "Shelf_2x1x1_proxy.001_7",
      "primitives": [
        {
          "attributes": {
            "NORMAL": 22,
            "POSITION": 21
          },
          "indices": 23,
          "material": 7,
          "mode": 4
        }
      ]
    },
    {
      "name": "Shelf_2x1x1_proxy.001_8",
      "primitives": [
        {
          "attributes": {
            "NORMAL": 25,
            "POSITION": 24
          },
          "indices": 26,
          "material": 8,
          "mode": 4
        }
      ]
    },
    {
      "name": "Shelf_2x1x1_proxy.001_9",
      "primitives": [
        {
          "attributes": {
            "NORMAL": 28,
            "POSITION": 27
          },
          "indices": 29,
          "material": 9,
          "mode": 4
        }
      ]
    },
    {
      "name": "Shelf_2x1x1_proxy.001_10",
      "primitives": [
        {
          "attributes": {
            "NORMAL": 31,
            "POSITION": 30
          },
          "indices": 32,
          "material": 10,
          "mode": 4
        }
      ]
    }
  ],
  "nodes": [
    {
      "children": [
        1
      ],
      "name": "RootNode (gltf orientation matrix)",
      "rotation": [
        -0.70710678118654746,
        -0,
        -0,
        0.70710678118654757
      ]
    },
    {
      "children": [
        2
      ],
      "name": "RootNode (model correction matrix)"
    },
    {
      "children": [
        3
      ],
      "name": "Root"
    },
    {
      "children": [
        4
      ],
      "name": "Shelf_2x1x1_proxy.001"
    },
    {
      "children": [
        5,
        6,
        7,
        8,
        9,
        10,
        11,
        12,
        13,
        14,
        15
      ],
      "name": "Geode"
    },
    {
      "mesh": 0,
      "name": "Shelf_2x1x1_proxy.001_0"
    },
    {
      "mesh": 1,
      "name": "Shelf_2x1x1_proxy.001_1"
    },
    {
      "mesh": 2,
      "name": "Shelf_2x1x1_proxy.001_2"
    },
    {
      "mesh": 3,
      "name": "Shelf_2x1x1_proxy.001_3"
    },
    {
      "mesh": 4,
      "name": "Shelf_2x1x1_proxy.001_4"
    },
    {
      "mesh": 5,
      "name": "Shelf_2x1x1_proxy.001_5"
    },
    {
      "mesh": 6,
      "name": "Shelf_2x1x1_proxy.001_6"
    },
    {
      "mesh": 7,
      "name": "Shelf_2x1x1_proxy.001_7"
    },
    {
      "mesh": 8,
      "name": "Shelf_2x1x1_proxy.001_8"
    },
    {
      "mesh": 9,
      "name": "Shelf_2x1x1_proxy.001_9"
    },
    {
      "mesh": 10,
      "name": "Shelf_2x1x1_proxy.001_10"
    }
  ],
  "scene": 0,
  "scenes": [
    {
      "name": "OSG_Scene",
      "nodes": [
        0
      ]
    }
  ]
}

