# Blender v2.79 (sub 0) OBJ File: 'KingsHead.blend'
# www.blender.org
mtllib KingsHead.mtl
o King_posed001.001
v 0.017663 -0.221031 -0.135562
v 0.000563 -0.212431 0.030638
v -0.003537 -0.182431 -0.028262
v -0.003537 -0.207531 -0.028262
v -0.002437 -0.151731 0.126738
v -0.002537 -0.174931 0.115738
v -0.145837 -0.165231 -0.144962
v -0.142537 -0.270831 -0.161562
v -0.143737 -0.271831 -0.145562
v -0.168137 -0.121431 -0.066662
v -0.002437 -0.227531 -0.111562
v -0.002037 -0.336431 -0.183962
v -0.086037 -0.079431 -0.077662
v 0.002663 -0.081831 -0.092362
v 0.002463 -0.214931 -0.171862
v -0.086637 -0.041831 -0.046462
v -0.000537 -0.335231 -0.203962
v 0.001663 -0.055931 -0.062962
v -0.166637 -0.028931 -0.049862
v -0.170737 -0.015531 -0.044162
v -0.159537 -0.022631 -0.054462
v -0.095937 -0.066031 -0.062662
v -0.098537 -0.031731 -0.053262
v -0.100437 -0.044731 -0.071662
v 0.002763 -0.046431 -0.072562
v 0.002563 -0.010731 -0.047662
v 0.004363 -0.004631 -0.068362
v 0.004563 0.051369 -0.037462
v 0.006363 0.008169 -0.088762
v -0.037037 -0.017431 -0.040562
v 0.001563 -0.019131 -0.038862
v -0.075437 0.028969 -0.027762
v -0.083937 0.043469 -0.021362
v -0.084937 0.045869 -0.034662
v -0.076537 0.031369 -0.040962
v -0.053437 0.022369 -0.033362
v -0.054337 0.024769 -0.046562
v -0.030537 0.027569 -0.034862
v -0.031337 0.029969 -0.048062
v -0.021337 0.043969 -0.044662
v -0.020237 0.041569 -0.031462
v -0.029837 0.058569 -0.038362
v -0.028737 0.056169 -0.025062
v -0.051837 0.065169 -0.032762
v -0.050937 0.062669 -0.019562
v -0.074737 0.059869 -0.031262
v -0.073637 0.057469 -0.017962
v -0.053137 0.044969 -0.039662
v -0.052037 0.042569 -0.026462
v -0.160637 -0.107231 0.065738
v -0.203837 -0.230331 0.056038
v -0.156637 -0.239031 0.162138
v -0.129937 -0.097731 0.160138
v -0.026737 -0.247331 0.210938
v -0.019837 -0.098231 0.208238
v -0.098237 -0.119831 -0.065662
v -0.000237 -0.129731 -0.081962
v -0.004837 -0.229631 -0.079862
v -0.140237 -0.225831 -0.055462
v -0.014837 -0.238731 0.063838
v -0.091237 0.134069 -0.005162
v -0.132037 0.135969 0.082138
v 0.000263 0.159869 0.089838
v 0.007163 0.136969 -0.020262
v -0.099537 0.129569 0.161938
v -0.009237 0.123669 0.198338
v -0.158337 -0.051331 0.063238
v -0.134737 -0.045031 0.050938
v -0.137237 -0.049531 0.082838
v -0.159037 -0.052931 0.072438
v -0.134837 0.022969 0.093738
v -0.132337 0.027569 0.061738
v -0.171437 0.016569 0.087638
v -0.172337 0.014669 0.099638
v -0.152237 0.122469 0.083438
v -0.153137 0.093069 0.077138
v -0.116037 0.074469 0.164638
v -0.115137 0.103969 0.170938
v -0.011937 0.083469 0.210438
v -0.013537 0.051269 0.204038
v -0.100237 0.140369 -0.013062
v 0.008763 0.157169 -0.029762
v 0.007863 0.127769 -0.036062
v -0.101037 0.110969 -0.019262
v -0.002437 0.090969 0.084038
v 0.006063 0.126569 -0.011862
v 0.010163 0.287769 0.031138
v 0.008063 0.137869 -0.031562
v -0.020037 0.134069 -0.016062
v 0.006563 0.132869 -0.014862
v -0.119937 0.213769 0.025038
v -0.092937 0.133169 -0.010362
v -0.105237 0.127969 0.017138
v -0.061337 0.128169 -0.012862
v -0.051537 0.077869 -0.032062
v -0.004837 0.069669 -0.037262
v -0.005937 0.068769 -0.023262
v -0.052637 0.077069 -0.018062
v -0.008937 0.086169 -0.022462
v -0.007837 0.087069 -0.036462
v -0.051037 0.091969 -0.031162
v -0.052037 0.091069 -0.017162
v -0.090937 0.060469 -0.014362
v -0.090537 0.071569 -0.013662
v -0.089437 0.072469 -0.027662
v -0.089937 0.061369 -0.028362
v 0.149863 -0.177931 -0.131862
v 0.164363 -0.135631 -0.051962
v 0.138163 -0.283931 -0.133162
v 0.139363 -0.282931 -0.149062
v 0.088563 -0.086831 -0.069962
v 0.087963 -0.049231 -0.038762
v 0.168863 -0.043231 -0.035062
v 0.162863 -0.036431 -0.040262
v 0.173263 -0.030231 -0.029062
v 0.101663 -0.040231 -0.044462
v 0.097163 -0.074231 -0.054162
v 0.104963 -0.053431 -0.062562
v 0.040063 -0.020731 -0.037162
v 0.080463 0.022269 -0.020862
v 0.083663 0.024469 -0.033962
v 0.092163 0.038269 -0.026762
v 0.089263 0.036069 -0.013762
v 0.058863 0.017569 -0.028362
v 0.061763 0.019869 -0.041462
v 0.036863 0.024769 -0.031862
v 0.039963 0.026969 -0.044962
v 0.030463 0.041769 -0.042462
v 0.027463 0.039569 -0.029362
v 0.039263 0.055569 -0.035262
v 0.036263 0.053369 -0.022262
v 0.060963 0.060369 -0.027762
v 0.057863 0.058069 -0.014762
v 0.082963 0.053169 -0.024262
v 0.079863 0.050869 -0.011262
v 0.061463 0.040069 -0.034562
v 0.058363 0.037869 -0.021562
v 0.139263 -0.120031 0.078938
v 0.096063 -0.107331 0.170138
v 0.093463 -0.247231 0.190338
v 0.172763 -0.254931 0.100538
v 0.095363 -0.128131 -0.057162
v 0.147363 -0.254531 -0.022662
v 0.102263 0.125769 0.003438
v 0.130063 0.124769 0.093738
v 0.085863 0.121669 0.170138
v 0.118763 -0.060531 0.094138
v 0.121263 -0.055931 0.062238
v 0.142363 -0.064131 0.076538
v 0.141663 -0.065831 0.085638
v 0.157763 0.002469 0.102138
v 0.123763 0.016569 0.073038
v 0.121163 0.012069 0.105038
v 0.156863 0.000669 0.114138
v 0.096863 0.065369 0.174038
v 0.147863 0.080169 0.090438
v 0.148763 0.109669 0.096638
v 0.097763 0.094869 0.180338
v 0.112763 0.131269 -0.003762
v 0.111863 0.101869 -0.009862
v 0.033163 0.131769 -0.013662
v 0.133163 0.202969 0.036138
v 0.112063 0.118669 0.026738
v 0.104563 0.124769 -0.001662
v 0.073063 0.122369 -0.006862
v 0.061763 0.074469 -0.026962
v 0.060663 0.073669 -0.012962
v 0.013663 0.066469 -0.022862
v 0.014763 0.067269 -0.036862
v 0.017563 0.083569 -0.021562
v 0.061263 0.087669 -0.012062
v 0.062363 0.088469 -0.026062
v 0.018663 0.084369 -0.035562
v 0.098063 0.065869 -0.019362
v 0.096963 0.064969 -0.005362
v 0.096563 0.053869 -0.006062
v 0.097563 0.054769 -0.020062
vt 0.266700 0.877900
vt 0.266900 0.849700
vt 0.271300 0.850700
vt 0.281400 0.898100
vt 0.917800 0.962500
vt 0.938000 0.923900
vt 0.950700 0.958900
vt 0.931400 0.987600
vt 0.254300 0.908900
vt 0.229300 0.908000
vt 0.226100 0.864300
vt 0.256100 0.922300
vt 0.231900 0.824800
vt 0.270200 0.846500
vt 0.227600 0.829000
vt 0.230800 0.918900
vt 0.898900 0.928700
vt 0.914000 0.916300
vt 0.860800 0.155800
vt 0.861200 0.160300
vt 0.858100 0.156800
vt 0.697500 0.884800
vt 0.712500 0.877400
vt 0.712500 0.885100
vt 0.696800 0.888000
vt 0.842200 0.150100
vt 0.842900 0.143700
vt 0.840900 0.156100
vt 0.734200 0.878600
vt 0.734700 0.888700
vt 0.811200 0.152100
vt 0.815300 0.140300
vt 0.812100 0.157700
vt 0.241800 0.964400
vt 0.226100 0.954400
vt 0.241000 0.942400
vt 0.231000 0.939200
vt 0.437200 0.912000
vt 0.440100 0.918100
vt 0.436900 0.917700
vt 0.434200 0.914000
vt 0.430900 0.907900
vt 0.427900 0.911200
vt 0.419100 0.912600
vt 0.425000 0.907800
vt 0.422000 0.914500
vt 0.419900 0.918300
vt 0.416800 0.919000
vt 0.422500 0.921800
vt 0.420600 0.925000
vt 0.428600 0.923600
vt 0.428900 0.927300
vt 0.434600 0.921500
vt 0.436900 0.924300
vt 0.428300 0.917500
vt 0.959700 0.933100
vt 0.957400 0.930000
vt 0.964400 0.929300
vt 0.964700 0.934000
vt 0.964000 0.924700
vt 0.969000 0.925600
vt 0.971300 0.928700
vt 0.959200 0.926500
vt 0.969500 0.932200
vt 0.821600 0.292100
vt 0.819500 0.238300
vt 0.866900 0.241000
vt 0.863900 0.299500
vt 0.923000 0.248700
vt 0.913000 0.308000
vt 0.760700 0.290500
vt 0.720500 0.295900
vt 0.713200 0.255800
vt 0.767900 0.244900
vt 0.853100 0.924300
vt 0.865200 0.920500
vt 0.895600 0.941300
vt 0.848800 0.935600
vt 0.795400 0.797700
vt 0.770000 0.806300
vt 0.770200 0.769400
vt 0.801800 0.771300
vt 0.747800 0.796000
vt 0.737900 0.770900
vt 0.894000 0.983300
vt 0.858200 0.967100
vt 0.825500 0.392600
vt 0.861100 0.393000
vt 0.900700 0.397200
vt 0.786200 0.393500
vt 0.747300 0.404300
vt 0.725300 0.427700
vt 0.724600 0.420100
vt 0.732600 0.425400
vt 0.726300 0.429800
vt 0.697700 0.427200
vt 0.703600 0.419800
vt 0.705900 0.433000
vt 0.705000 0.436100
vt 0.885400 0.545800
vt 0.898200 0.529400
vt 0.902900 0.533900
vt 0.893800 0.552300
vt 0.956900 0.946300
vt 0.956200 0.939100
vt 0.972000 0.937700
vt 0.972700 0.944900
vt 0.062900 0.994700
vt 0.063200 0.986400
vt 0.090600 0.988000
vt 0.090300 0.996200
vt 0.121300 0.995200
vt 0.121600 0.986900
vt 0.032200 0.993000
vt 0.002000 0.996300
vt 0.002300 0.988100
vt 0.032500 0.984800
vt 0.929000 0.338800
vt 0.922100 0.309300
vt 0.957500 0.309900
vt 0.957100 0.351200
vt 0.915900 0.448500
vt 0.927800 0.477100
vt 0.886000 0.447500
vt 0.886900 0.439300
vt 0.915400 0.502200
vt 0.885400 0.512600
vt 0.992900 0.310300
vt 0.981900 0.339400
vt 0.989100 0.046900
vt 0.982100 0.002800
vt 0.990900 0.002000
vt 0.907500 0.969600
vt 0.910800 0.967500
vt 0.913800 0.972500
vt 0.517700 0.871400
vt 0.503000 0.850900
vt 0.511100 0.848400
vt 0.524100 0.841900
vt 0.969700 0.955300
vt 0.962700 0.955100
vt 0.973100 0.949300
vt 0.494400 0.852300
vt 0.955200 0.920900
vt 0.969800 0.911400
vt 0.970400 0.919700
vt 0.998000 0.003500
vt 0.479200 0.965100
vt 0.519000 0.954900
vt 0.521600 0.968500
vt 0.477400 0.978400
vt 0.513600 0.933800
vt 0.513300 0.945500
vt 0.477300 0.949500
vt 0.471100 0.933900
vt 0.425500 0.953700
vt 0.433400 0.944900
vt 0.441200 0.953700
vt 0.438400 0.962400
vt 0.730900 0.977300
vt 0.726800 0.983200
vt 0.709500 0.965500
vt 0.714700 0.958100
vt 0.529100 0.940900
vt 0.436200 0.978600
vt 0.687900 0.949900
vt 0.694300 0.940800
vt 0.266700 0.877900
vt 0.281400 0.898100
vt 0.271300 0.850700
vt 0.266900 0.849700
vt 0.950700 0.958900
vt 0.938000 0.923900
vt 0.254300 0.908900
vt 0.256100 0.922300
vt 0.270200 0.846500
vt 0.914000 0.916300
vt 0.860800 0.155800
vt 0.858100 0.156800
vt 0.861200 0.160300
vt 0.712500 0.885100
vt 0.712500 0.877400
vt 0.697500 0.884800
vt 0.696800 0.888000
vt 0.842200 0.150100
vt 0.842900 0.143700
vt 0.840900 0.156100
vt 0.241000 0.942400
vt 0.437200 0.912000
vt 0.434200 0.914000
vt 0.436900 0.917700
vt 0.440100 0.918100
vt 0.430900 0.907900
vt 0.427900 0.911200
vt 0.419100 0.912600
vt 0.422000 0.914500
vt 0.425000 0.907800
vt 0.419900 0.918300
vt 0.416800 0.919000
vt 0.422500 0.921800
vt 0.420600 0.925000
vt 0.428600 0.923600
vt 0.428900 0.927300
vt 0.434600 0.921500
vt 0.436900 0.924300
vt 0.428300 0.917500
vt 0.959700 0.933100
vt 0.964700 0.934000
vt 0.964400 0.929300
vt 0.957400 0.930000
vt 0.971300 0.928700
vt 0.969000 0.925600
vt 0.964000 0.924700
vt 0.959200 0.926500
vt 0.969500 0.932200
vt 0.821600 0.292100
vt 0.863900 0.299500
vt 0.866900 0.241000
vt 0.819500 0.238300
vt 0.760700 0.290500
vt 0.767900 0.244900
vt 0.853100 0.924300
vt 0.848800 0.935600
vt 0.795400 0.797700
vt 0.770000 0.806300
vt 0.747800 0.796000
vt 0.858200 0.967100
vt 0.825500 0.392600
vt 0.861100 0.393000
vt 0.786200 0.393500
vt 0.732600 0.425400
vt 0.724600 0.420100
vt 0.725300 0.427700
vt 0.726300 0.429800
vt 0.705900 0.433000
vt 0.703600 0.419800
vt 0.697700 0.427200
vt 0.705000 0.436100
vt 0.902900 0.533900
vt 0.898200 0.529400
vt 0.885400 0.545800
vt 0.893800 0.552300
vt 0.956900 0.946300
vt 0.972700 0.944900
vt 0.972000 0.937700
vt 0.956200 0.939100
vt 0.090600 0.988000
vt 0.063200 0.986400
vt 0.062900 0.994700
vt 0.090300 0.996200
vt 0.032200 0.993000
vt 0.032500 0.984800
vt 0.929000 0.338800
vt 0.957100 0.351200
vt 0.915900 0.448500
vt 0.927800 0.477100
vt 0.915400 0.502200
vt 0.981900 0.339400
vt 0.990900 0.002000
vt 0.913800 0.972500
vt 0.517700 0.871400
vt 0.511100 0.848400
vt 0.503000 0.850900
vt 0.524100 0.841900
vt 0.969700 0.955300
vt 0.973100 0.949300
vt 0.962700 0.955100
vt 0.494400 0.852300
vt 0.969800 0.911400
vt 0.479200 0.965100
vt 0.477400 0.978400
vt 0.521600 0.968500
vt 0.519000 0.954900
vt 0.513600 0.933800
vt 0.471100 0.933900
vt 0.477300 0.949500
vt 0.513300 0.945500
vt 0.441200 0.953700
vt 0.433400 0.944900
vt 0.425500 0.953700
vt 0.438400 0.962400
vt 0.730900 0.977300
vt 0.714700 0.958100
vt 0.709500 0.965500
vt 0.726800 0.983200
vt 0.529100 0.940900
vt 0.436200 0.978600
vt 0.694300 0.940800
vt 0.687900 0.949900
vn -0.4652 0.4240 -0.7770
vn -0.7266 -0.3305 -0.6023
vn -0.6908 -0.6760 0.2564
vn -0.8069 -0.0812 0.5851
vn -0.0578 -0.4015 0.9140
vn -0.0587 -0.8696 0.4903
vn -0.1750 0.6584 -0.7321
vn 0.0612 0.6271 -0.7766
vn 0.0581 0.3912 -0.9185
vn -0.3312 0.8933 -0.3037
vn 0.0128 -0.5752 -0.8179
vn 0.0137 0.8662 0.4995
vn -0.7449 -0.4219 -0.5168
vn -0.5106 0.7600 -0.4020
vn -0.3581 0.2452 -0.9009
vn -0.1955 -0.9807 0.0041
vn 0.0023 0.6756 0.7373
vn -0.1780 0.4525 -0.8738
vn -0.0328 -0.9774 -0.2089
vn -0.0125 0.5633 0.8261
vn 0.0613 0.6001 -0.7976
vn -0.0018 0.5695 0.8220
vn 0.0283 -0.4459 -0.8946
vn -0.8902 -0.4460 0.0927
vn -0.0590 -0.8640 0.5000
vn -0.4777 -0.8057 0.3503
vn -0.5556 -0.2372 0.7969
vn -0.7235 0.2641 -0.6378
vn -0.6463 -0.5406 -0.5386
vn 0.0550 -0.8560 0.5140
vn -0.1506 -0.4859 -0.8609
vn 0.5140 -0.8172 0.2606
vn 0.4538 -0.6050 -0.6543
vn 0.5579 0.2357 -0.7958
vn 0.7231 -0.2638 0.6384
vn 0.4778 0.8053 -0.3511
vn 0.6454 0.5409 0.5393
vn -0.0564 0.8565 -0.5130
vn 0.1499 0.4831 0.8627
vn -0.5147 0.8182 -0.2562
vn -0.4492 0.6044 0.6580
vn -0.1374 0.3268 -0.9351
vn 0.1381 -0.3289 0.9342
vn -0.9760 0.2117 -0.0510
vn -0.7794 -0.6194 -0.0944
vn -0.6834 -0.3677 0.6306
vn -0.7107 0.1212 0.6930
vn -0.0846 -0.7161 0.6928
vn -0.0567 0.0525 0.9970
vn -0.5778 0.1836 -0.7952
vn 0.0616 0.0869 -0.9943
vn -0.0070 -0.7194 -0.6945
vn -0.5372 -0.3599 -0.7628
vn -0.0612 -0.9971 -0.0449
vn -0.4925 0.5707 -0.6570
vn -0.6888 0.7249 -0.0037
vn 0.0402 0.9977 0.0539
vn 0.0620 0.7370 -0.6730
vn -0.6127 0.4747 0.6319
vn -0.0084 0.6434 0.7655
vn -0.6821 -0.4936 -0.5395
vn 0.4710 -0.6137 -0.6337
vn 0.6005 -0.6520 0.4629
vn -0.4546 -0.7869 0.4173
vn 0.5044 0.4283 0.7498
vn 0.2017 0.8517 -0.4836
vn -0.8061 0.4609 -0.3712
vn -0.7243 0.3364 0.6019
vn -0.6201 0.7551 0.2129
vn -0.6797 -0.7015 -0.2144
vn -0.6553 -0.5728 0.4925
vn -0.5887 0.3673 0.7201
vn -0.0136 0.5824 0.8128
vn -0.0616 -0.8662 0.4959
vn -0.5180 0.6676 -0.5348
vn 0.0585 0.9010 -0.4299
vn 0.0146 -0.5428 -0.8397
vn -0.4995 -0.3141 -0.8074
vn -0.0303 -0.9675 -0.2509
vn 0.0271 0.9509 0.3082
vn 0.0035 0.2038 0.9790
vn 0.0225 -0.5137 -0.8577
vn -0.5353 -0.8354 -0.1248
vn -0.0593 -0.8785 0.4740
vn -0.4981 0.4421 -0.7459
vn -0.5290 -0.3270 -0.7831
vn -0.4317 -0.8934 0.1244
vn 0.5175 -0.7161 -0.4684
vn -0.0079 -0.6511 -0.7590
vn 0.4853 -0.5407 -0.6871
vn 0.5664 -0.5355 0.6265
vn 0.1600 -0.7209 0.6743
vn 0.6040 0.5526 0.5743
vn 0.5627 0.6793 -0.4711
vn -0.2009 0.7118 -0.6730
vn -0.0347 0.6476 0.7612
vn 0.5627 0.6792 -0.4711
vn -0.0078 -0.6511 -0.7590
vn -0.3455 -0.6815 0.6452
vn -0.7180 0.4722 0.5114
vn -0.7361 0.4709 -0.4862
vn -0.4731 -0.5244 -0.7079
vn -0.3456 -0.6814 0.6452
vn 0.4853 -0.5408 -0.6871
vn 0.5663 -0.5355 0.6265
vn -0.4730 -0.5244 -0.7080
vn -0.3456 -0.6814 0.6451
vn -0.7361 0.4708 -0.4863
vn -0.7180 0.4721 0.5114
vn -0.4730 -0.5245 -0.7079
vn 0.5792 0.3864 -0.7178
vn 0.7248 -0.1424 0.6741
vn 0.5981 -0.7232 0.3453
vn 0.7616 -0.4029 -0.5076
vn 0.2979 0.6440 -0.7046
vn 0.4355 0.8645 -0.2510
vn 0.7569 -0.4867 -0.4362
vn 0.4631 0.2080 -0.8616
vn 0.6142 0.7102 -0.3441
vn -0.0099 0.6716 0.7409
vn 0.1124 -0.9934 0.0220
vn 0.2963 0.4325 -0.8516
vn 0.8372 -0.5058 0.2080
vn 0.3674 -0.8351 0.4093
vn 0.6529 -0.6011 -0.4609
vn 0.8103 0.2042 -0.5492
vn 0.4465 -0.2758 0.8512
vn -0.1758 -0.8462 0.5030
vn 0.1854 -0.4965 -0.8480
vn -0.6027 -0.7756 0.1875
vn -0.4286 -0.5566 -0.7117
vn -0.4451 0.2774 -0.8514
vn -0.8083 -0.2041 0.5523
vn -0.3695 0.8354 -0.4069
vn -0.6509 0.6027 0.4616
vn 0.1744 0.8473 -0.5017
vn -0.1865 0.4962 0.8479
vn 0.6073 0.7726 -0.1848
vn 0.4300 0.5520 0.7145
vn 0.2495 0.3154 -0.9156
vn -0.2491 -0.3133 0.9164
vn 0.9834 0.1359 0.1202
vn 0.6094 0.0772 0.7891
vn 0.5214 -0.3873 0.7603
vn 0.7096 -0.6972 0.1019
vn 0.7003 0.1222 -0.7033
vn 0.6035 -0.4459 -0.6610
vn 0.6088 0.5297 -0.5906
vn 0.7440 0.6614 0.0949
vn 0.5769 0.4171 0.7023
vn -0.7016 -0.6059 0.3750
vn -0.4397 -0.5572 -0.7044
vn 0.6949 -0.5530 -0.4596
vn 0.3471 -0.8138 0.4661
vn 0.8815 0.3902 -0.2658
vn -0.0699 0.8534 -0.5165
vn -0.5393 0.4843 0.6889
vn 0.6799 0.2683 0.6824
vn 0.5400 -0.6247 0.5641
vn 0.6342 -0.7627 -0.1268
vn 0.6552 0.6948 0.2967
vn 0.5331 0.3139 0.7856
vn 0.6315 0.6205 -0.4650
vn 0.5537 -0.3636 -0.7491
vn 0.4832 -0.8730 -0.0666
vn 0.6193 0.4112 -0.6688
vn 0.3391 -0.9202 0.1956
vn 0.5822 -0.3841 -0.7166
vn -0.5511 -0.6548 -0.5172
vn 0.0414 -0.6473 -0.7611
vn -0.2628 -0.7067 0.6569
vn -0.6518 -0.5128 0.5588
vn -0.4227 -0.5010 -0.7552
vn -0.6433 0.5931 0.4841
vn -0.0014 0.6410 0.7675
vn 0.3015 0.6959 -0.6518
vn -0.4775 0.6900 -0.5440
vn 0.3015 0.6958 -0.6518
vn 0.0415 -0.6473 -0.7611
vn 0.8269 0.4084 -0.3865
vn 0.6901 0.3980 0.6044
vn 0.2222 -0.6964 0.6824
vn 0.4917 -0.5750 -0.6540
vn 0.2222 -0.6965 0.6823
vn -0.4774 0.6900 -0.5440
vn 0.4917 -0.5750 -0.6539
vn 0.8269 0.4083 -0.3866
vn 0.8270 0.4083 -0.3865
usemtl wire_115115115.001
s 1
f 7/1/1 8/2/2 9/3/3 10/4/4
f 11/5/5 10/6/4 9/7/3 12/8/6
f 7/1/1 13/9/7 14/10/8 15/11/9
f 13/9/7 7/1/1 10/4/4 16/12/10
f 12/13/6 9/14/3 8/2/2 17/15/11
f 15/11/9 17/15/11 8/2/2 7/1/1
f 18/16/12 14/10/8 13/9/7 16/12/10
f 18/17/12 16/18/10 10/6/4 11/5/5
f 19/19/13 20/20/14 21/21/15
f 19/22/13 22/23/16 23/24/17 20/25/14
f 24/26/18 22/27/16 19/19/13 21/21/15
f 23/28/17 24/26/18 21/21/15 20/20/14
f 23/24/17 22/23/16 25/29/19 26/30/20
f 24/26/18 27/31/21 25/32/19 22/27/16
f 23/28/17 26/33/20 27/31/21 24/26/18
f 28/34/22 29/35/23 30/36/24
f 29/35/23 31/37/25 30/36/24
f 32/38/26 33/39/27 34/40/28 35/41/29
f 36/42/30 32/38/26 35/41/29 37/43/31
f 38/44/32 36/45/30 37/43/31 39/46/33
f 38/44/32 39/46/33 40/47/34 41/48/35
f 41/48/35 40/47/34 42/49/36 43/50/37
f 43/50/37 42/49/36 44/51/38 45/52/39
f 45/52/39 44/51/38 46/53/40 47/54/41
f 33/39/27 47/54/41 46/53/40 34/40/28
f 46/53/40 44/51/38 48/55/42 34/40/28
f 47/56/41 33/57/27 49/58/43 45/59/39
f 48/55/42 44/51/38 42/49/36 40/47/34
f 48/55/42 37/43/31 35/41/29 34/40/28
f 48/55/42 40/47/34 39/46/33 37/43/31
f 49/58/43 36/60/30 38/61/32 41/62/35
f 49/58/43 33/57/27 32/63/26 36/60/30
f 49/58/43 41/62/35 43/64/37 45/59/39
f 50/65/44 51/66/45 52/67/46 53/68/47
f 53/68/47 52/67/46 54/69/48 55/70/49
f 56/71/50 57/72/51 58/73/52 59/74/53
f 50/65/44 56/71/50 59/74/53 51/66/45
f 59/75/53 58/76/52 60/77/54 51/78/45
f 61/79/55 62/80/56 63/81/57 64/82/58
f 63/81/57 62/80/56 65/83/59 66/84/60
f 60/77/54 54/85/48 52/86/46 51/78/45
f 62/87/56 50/65/44 53/68/47 65/88/59
f 65/88/59 53/68/47 55/70/49 66/89/60
f 56/71/50 61/90/55 64/91/58 57/72/51
f 50/65/44 62/87/56 61/90/55 56/71/50
f 67/92/61 68/93/62 69/94/63 70/95/64
f 71/96/65 72/97/66 73/98/67 74/99/68
f 73/98/67 72/97/66 68/93/62 67/92/61
f 73/98/67 67/92/61 70/95/64 74/99/68
f 74/100/68 70/101/64 69/102/63 71/103/65
f 72/104/66 71/105/65 69/106/63 68/107/62
f 75/108/69 76/109/70 77/110/71 78/111/72
f 79/112/73 78/111/72 77/110/71 80/113/74
f 81/114/75 82/115/76 83/116/77 84/117/78
f 81/114/75 84/117/78 76/109/70 75/108/69
f 84/118/78 83/119/77 85/120/79 76/121/70
f 81/122/75 75/123/69 86/124/80 82/125/76
f 75/123/69 78/126/72 79/127/73 86/124/80
f 85/120/79 80/128/74 77/129/71 76/121/70
f 87/130/81 88/131/82 89/132/83
f 88/133/82 90/134/84 89/135/83
f 91/136/85 92/137/86 93/138/87
f 91/136/85 93/138/87 94/139/88
f 92/140/86 94/141/88 93/142/87
f 94/143/88 92/137/86 91/136/85
f 28/144/22 30/145/24 31/146/25
f 87/130/81 89/132/83 90/147/84
f 95/148/89 96/149/90 97/150/91 98/151/92
f 99/152/93 100/153/94 101/154/95 102/155/96
f 101/154/95 100/153/97 96/149/90 95/148/98
f 103/156/99 104/157/100 105/158/101 106/159/102
f 104/160/100 103/161/103 98/162/92 102/163/96
f 96/149/104 100/153/94 99/152/93 97/164/105
f 106/159/106 95/148/89 98/151/92 103/165/107
f 102/155/96 101/154/95 105/158/108 104/157/109
f 105/158/108 101/154/95 95/148/98 106/159/110
f 102/163/96 98/162/92 97/166/91 99/167/93
f 107/168/111 108/169/112 109/170/113 110/171/114
f 11/5/5 12/8/6 109/172/113 108/173/112
f 14/10/8 111/174/115 107/168/111 15/11/9
f 111/174/115 112/175/116 108/169/112 107/168/111
f 110/171/114 109/176/113 12/13/6 17/15/11
f 15/11/9 107/168/111 110/171/114 17/15/11
f 18/16/12 112/175/116 111/174/115 14/10/8
f 108/173/112 112/177/116 18/17/12 11/5/5
f 113/178/117 114/179/118 115/180/119
f 116/181/120 117/182/121 113/183/117 115/184/119
f 118/185/122 114/179/118 113/178/117 117/186/121
f 116/187/120 115/180/119 114/179/118 118/185/122
f 116/181/120 26/30/20 25/29/19 117/182/121
f 118/185/122 117/186/121 25/32/19 27/31/21
f 116/187/120 118/185/122 27/31/21 26/33/20
f 28/34/22 119/188/123 29/35/23
f 29/35/23 119/188/123 31/37/25
f 120/189/124 121/190/125 122/191/126 123/192/127
f 124/193/128 125/194/129 121/190/125 120/189/124
f 126/195/130 127/196/131 125/194/129 124/197/128
f 128/198/132 127/196/131 126/195/130 129/199/133
f 130/200/134 128/198/132 129/199/133 131/201/135
f 132/202/136 130/200/134 131/201/135 133/203/137
f 134/204/138 132/202/136 133/203/137 135/205/139
f 123/192/127 122/191/126 134/204/138 135/205/139
f 136/206/140 132/202/136 134/204/138 122/191/126
f 135/207/139 133/208/137 137/209/141 123/210/127
f 136/206/140 128/198/132 130/200/134 132/202/136
f 121/190/125 125/194/129 136/206/140 122/191/126
f 136/206/140 125/194/129 127/196/131 128/198/132
f 137/209/141 129/211/133 126/212/130 124/213/128
f 137/209/141 124/213/128 120/214/124 123/210/127
f 137/209/141 133/208/137 131/215/135 129/211/133
f 138/216/142 139/217/143 140/218/144 141/219/145
f 139/217/143 55/70/49 54/69/48 140/218/144
f 142/220/146 143/221/147 58/73/52 57/72/51
f 138/216/142 141/219/145 143/221/147 142/220/146
f 60/77/54 58/76/52 143/222/147 141/223/145
f 144/224/148 64/82/58 63/81/57 145/225/149
f 63/81/57 66/84/60 146/226/150 145/225/149
f 140/227/144 54/85/48 60/77/54 141/223/145
f 145/228/149 146/229/150 139/217/143 138/216/142
f 146/229/150 66/89/60 55/70/49 139/217/143
f 64/91/58 144/230/148 142/220/146 57/72/51
f 144/230/148 145/228/149 138/216/142 142/220/146
f 147/231/151 148/232/152 149/233/153 150/234/154
f 151/235/155 152/236/156 153/237/157 154/238/158
f 151/235/155 149/233/153 148/232/152 152/236/156
f 150/234/154 149/233/153 151/235/155 154/238/158
f 147/239/151 150/240/154 154/241/158 153/242/157
f 152/243/156 148/244/152 147/245/151 153/246/157
f 155/247/159 156/248/160 157/249/161 158/250/162
f 79/112/73 80/113/74 155/247/159 158/250/162
f 159/251/163 160/252/164 83/116/77 82/115/76
f 156/248/160 160/252/164 159/251/163 157/249/161
f 85/120/79 83/119/77 160/253/164 156/254/160
f 159/255/163 82/125/76 86/124/80 157/256/161
f 79/127/73 158/257/162 157/256/161 86/124/80
f 155/258/159 80/128/74 85/120/79 156/254/160
f 87/130/81 161/259/165 88/131/82
f 88/133/82 161/260/165 90/134/84
f 162/261/166 163/262/167 164/263/168
f 162/261/166 165/264/169 163/262/167
f 164/265/168 163/266/167 165/267/169
f 165/268/169 162/261/166 164/263/168
f 28/144/22 31/146/25 119/269/123
f 87/130/81 90/147/84 161/259/165
f 166/270/170 167/271/171 168/272/172 169/273/173
f 170/274/174 171/275/175 172/276/176 173/277/177
f 172/276/178 166/270/179 169/273/173 173/277/177
f 174/278/180 175/279/181 176/280/182 177/281/183
f 175/282/181 171/283/175 167/284/171 176/285/184
f 170/274/174 173/277/185 169/273/173 168/286/172
f 177/281/186 176/287/184 167/271/171 166/270/170
f 171/275/175 175/279/181 174/278/187 172/276/176
f 174/278/188 177/281/186 166/270/179 172/276/178
f 171/283/175 170/288/174 168/289/172 167/284/171