{
  "accessors": [
    {
      "bufferView": 1,
      "componentType": 5126,
      "count": 208,
      "max": [
        0.059999998658895493,
        0.059999998658895493,
        0.27000001072883606
      ],
      "min": [
        -0.059999998658895493,
        -0.059999998658895493,
        0
      ],
      "type": "VEC3"
    },
    {
      "bufferView": 1,
      "byteOffset": 2496,
      "componentType": 5126,
      "count": 208,
      "max": [
        0.92388087511062622,
        0.92388087511062622,
        1
      ],
      "min": [
        -0.92388087511062622,
        -0.92388087511062622,
        -1
      ],
      "type": "VEC3"
    },
    {
      "bufferView": 0,
      "componentType": 5125,
      "count": 330,
      "max": [
        207
      ],
      "min": [
        0
      ],
      "type": "SCALAR"
    },
    {
      "bufferView": 1,
      "byteOffset": 4992,
      "componentType": 5126,
      "count": 480,
      "max": [
        0.51410001516342163,
        -0.20117999613285065,
        0.44999998807907104
      ],
      "min": [
        -0.19539999961853027,
        -0.63502001762390137,
        -0
      ],
      "type": "VEC3"
    },
    {
      "bufferView": 1,
      "byteOffset": 10752,
      "componentType": 5126,
      "count": 480,
      "max": [
        0.94125974178314209,
        0.93462067842483521,
        1
      ],
      "min": [
        -0.95665353536605835,
        -0.95665609836578369,
        -1
      ],
      "type": "VEC3"
    },
    {
      "bufferView": 0,
      "byteOffset": 1320,
      "componentType": 5125,
      "count": 744,
      "max": [
        479
      ],
      "min": [
        0
      ],
      "type": "SCALAR"
    },
    {
      "bufferView": 1,
      "byteOffset": 16512,
      "componentType": 5126,
      "count": 152,
      "max": [
        -0.17344999313354492,
        0.01817999966442585,
        0.52499997615814209
      ],
      "min": [
        -0.3234499990940094,
        -0.13181999325752258,
        -0
      ],
      "type": "VEC3"
    },
    {
      "bufferView": 1,
      "byteOffset": 18336,
      "componentType": 5126,
      "count": 152,
      "max": [
        0.92388087511062622,
        0.92388087511062622,
        1
      ],
      "min": [
        -0.92388087511062622,
        -0.92388087511062622,
        -1
      ],
      "type": "VEC3"
    },
    {
      "bufferView": 0,
      "byteOffset": 4296,
      "componentType": 5125,
      "count": 258,
      "max": [
        151
      ],
      "min": [
        0
      ],
      "type": "SCALAR"
    },
    {
      "bufferView": 1,
      "byteOffset": 20160,
      "componentType": 5126,
      "count": 32,
      "max": [
        -0.17344999313354492,
        0.01817999966442585,
        0.22499999403953552
      ],
      "min": [
        -0.3234499990940094,
        -0.13181999325752258,
        0.075000002980232239
      ],
      "type": "VEC3"
    },
    {
      "bufferView": 1,
      "byteOffset": 20544,
      "componentType": 5126,
      "count": 32,
      "max": [
        0.92388087511062622,
        0.92388087511062622,
        0
      ],
      "min": [
        -0.92388087511062622,
        -0.92388087511062622,
        0
      ],
      "type": "VEC3"
    },
    {
      "bufferView": 0,
      "byteOffset": 5328,
      "componentType": 5125,
      "count": 48,
      "max": [
        31
      ],
      "min": [
        0
      ],
      "type": "SCALAR"
    },
    {
      "bufferView": 1,
      "byteOffset": 20928,
      "componentType": 5126,
      "count": 40,
      "max": [
        -0.22593000531196594,
        -0.034299999475479126,
        0.54000002145767212
      ],
      "min": [
        -0.27096998691558838,
        -0.079340003430843353,
        0.52499997615814209
      ],
      "type": "VEC3"
    },
    {
      "bufferView": 1,
      "byteOffset": 21408,
      "componentType": 5126,
      "count": 40,
      "max": [
        0.92388087511062622,
        0.92388087511062622,
        1
      ],
      "min": [
        -0.92388087511062622,
        -0.92388087511062622,
        0
      ],
      "type": "VEC3"
    },
    {
      "bufferView": 0,
      "byteOffset": 5520,
      "componentType": 5125,
      "count": 66,
      "max": [
        39
      ],
      "min": [
        0
      ],
      "type": "SCALAR"
    },
    {
      "bufferView": 1,
      "byteOffset": 21888,
      "componentType": 5126,
      "count": 176,
      "max": [
        0.41696000099182129,
        0.40217998623847961,
        0.15000000596046448
      ],
      "min": [
        0.14696000516414642,
        0.13218000531196594,
        0
      ],
      "type": "VEC3"
    },
    {
      "bufferView": 1,
      "byteOffset": 24000,
      "componentType": 5126,
      "count": 176,
      "max": [
        0.89443731307983398,
        0.89443731307983398,
        1
      ],
      "min": [
        -0.89443731307983398,
        -0.89443731307983398,
        -1
      ],
      "type": "VEC3"
    },
    {
      "bufferView": 0,
      "byteOffset": 5784,
      "componentType": 5125,
      "count": 276,
      "max": [
        175
      ],
      "min": [
        0
      ],
      "type": "SCALAR"
    },
    {
      "bufferView": 1,
      "byteOffset": 26112,
      "componentType": 5126,
      "count": 136,
      "max": [
        -0.05096999928355217,
        0.26129001379013062,
        0.20000000298023224
      ],
      "min": [
        -0.19006000459194183,
        0.12219999730587006,
        0
      ],
      "type": "VEC3"
    },
    {
      "bufferView": 1,
      "byteOffset": 27744,
      "componentType": 5126,
      "count": 136,
      "max": [
        0.96592593193054199,
        0.96592593193054199,
        1
      ],
      "min": [
        -0.96592593193054199,
        -0.96592593193054199,
        -1
      ],
      "type": "VEC3"
    },
    {
      "bufferView": 0,
      "byteOffset": 6888,
      "componentType": 5125,
      "count": 210,
      "max": [
        135
      ],
      "min": [
        0
      ],
      "type": "SCALAR"
    },
    {
      "bufferView": 1,
      "byteOffset": 29376,
      "componentType": 5126,
      "count": 20,
      "max": [
        -0.078089997172355652,
        0.23417000472545624,
        0.37924998998641968
      ],
      "min": [
        -0.16293999552726746,
        0.14932000637054443,
        0.1992499977350235
      ],
      "type": "VEC3"
    },
    {
      "bufferView": 1,
      "byteOffset": 29616,
      "componentType": 5126,
      "count": 20,
      "max": [
        0.70710676908493042,
        0.70710676908493042,
        1
      ],
      "min": [
        -0.70710676908493042,
        -0.70710676908493042,
        0
      ],
      "type": "VEC3"
    },
    {
      "bufferView": 0,
      "byteOffset": 7728,
      "componentType": 5125,
      "count": 30,
      "max": [
        19
      ],
      "min": [
        0
      ],
      "type": "SCALAR"
    },
    {
      "bufferView": 1,
      "byteOffset": 29856,
      "componentType": 5126,
      "count": 32,
      "max": [
        -0.092229999601840973,
        0.22002999484539032,
        0.5092499852180481
      ],
      "min": [
        -0.14880000054836273,
        0.16346000134944916,
        0.34924998879432678
      ],
      "type": "VEC3"
    },
    {
      "bufferView": 1,
      "byteOffset": 30240,
      "componentType": 5126,
      "count": 32,
      "max": [
        0.94281023740768433,
        0.94281023740768433,
        1
      ],
      "min": [
        -0.94281023740768433,
        -0.94281023740768433,
        -1
      ],
      "type": "VEC3"
    },
    {
      "bufferView": 0,
      "byteOffset": 7848,
      "componentType": 5125,
      "count": 36,
      "max": [
        31
      ],
      "min": [
        0
      ],
      "type": "SCALAR"
    }
  ],
  "asset": {
    "generator": "Sketchfab (OSG glTF plugin)",
    "version": "2.0"
  },
  "bufferViews": [
    {
      "buffer": 0,
      "byteLength": 7992,
      "byteOffset": 0,
      "name": "floatBufferViews",
      "target": 34963
    },
    {
      "buffer": 0,
      "byteLength": 30624,
      "byteOffset": 7992,
      "byteStride": 12,
      "name": "floatBufferViews",
      "target": 34962
    }
  ],
  "buffers": [
    {
      "byteLength": 38616,
      "uri": "scene.bin"
    }
  ],
  "materials": [
    {
      "alphaMode": "BLEND",
      "doubleSided": true,
      "emissiveFactor": [
        0,
        0,
        0
      ],
      "name": "Glass",
      "pbrMetallicRoughness": {
        "baseColorFactor": [
          0.55972433089999996,
          0.80000007149999997,
          0.80000007149999997,
          0.40000000000000002
        ],
        "metallicFactor": 0,
        "roughnessFactor": 0.59999999999999998
      }
    },
    {
      "alphaMode": "BLEND",
      "doubleSided": true,
      "emissiveFactor": [
        0,
        0,
        0
      ],
      "name": "GlassBrown",
      "pbrMetallicRoughness": {
        "baseColorFactor": [
          0.0159958415,
          0.0031384970000000001,
          2.1999999999999998e-09,
          0.90000000000000002
        ],
        "metallicFactor": 0,
        "roughnessFactor": 0.59999999999999998
      }
    },
    {
      "alphaMode": "BLEND",
      "doubleSided": true,
      "emissiveFactor": [
        0,
        0,
        0
      ],
      "name": "GlassGreen",
      "pbrMetallicRoughness": {
        "baseColorFactor": [
          0.0066938967999999998,
          0.015906054499999999,
          0,
          0.90000000000000002
        ],
        "metallicFactor": 0,
        "roughnessFactor": 0.59999999999999998
      }
    },
    {
      "doubleSided": true,
      "emissiveFactor": [
        0,
        0,
        0
      ],
      "name": "Paper",
      "pbrMetallicRoughness": {
        "baseColorFactor": [
          0.78739178180000002,
          0.65997022390000004,
          0.53831225630000001,
          1
        ],
        "metallicFactor": 0,
        "roughnessFactor": 0.59999999999999998
      }
    },
    {
      "doubleSided": true,
      "emissiveFactor": [
        0,
        0,
        0
      ],
      "name": "Wood",
      "pbrMetallicRoughness": {
        "baseColorFactor": [
          0.12823618949999999,
          0.066952794800000007,
          0.0434705913,
          1
        ],
        "metallicFactor": 0,
        "roughnessFactor": 0.59999999999999998
      }
    },
    {
      "doubleSided": true,
      "emissiveFactor": [
        0,
        0,
        0
      ],
      "name": "Ceramic",
      "pbrMetallicRoughness": {
        "baseColorFactor": [
          0.74839329720000003,
          0.69344663620000002,
          0.65152227880000002,
          1
        ],
        "metallicFactor": 0,
        "roughnessFactor": 0.59999999999999998
      }
    },
    {
      "doubleSided": true,
      "name": "Cooper",
      "pbrMetallicRoughness": {
        "baseColorFactor": [
          0.30319264530000001,
          0.094198152399999999,
          0.044307395800000003,
          1
        ],
        "metallicFactor": 0.5,
        "roughnessFactor": 0.59999999999999998
      }
    },
    {
      "alphaMode": "BLEND",
      "doubleSided": true,
      "emissiveFactor": [
        0,
        0,
        0
      ],
      "name": "Candle",
      "pbrMetallicRoughness": {
        "baseColorFactor": [
          1,
          1,
          1,
          0.90000000000000002
        ],
        "metallicFactor": 0,
        "roughnessFactor": 0.59999999999999998
      }
    },
    {
      "doubleSided": true,
      "emissiveFactor": [
        1,
        0.66490307260000003,
        0.1089605528
      ],
      "name": "CandleFlame",
      "pbrMetallicRoughness": {
        "baseColorFactor": [
          0.80000007149999997,
          0.33398842810000001,
          0.054717320899999998,
          1
        ],
        "metallicFactor": 0,
        "roughnessFactor": 0.59999999999999998
      }
    }
  ],
  "meshes": [
    {
      "name": "Glass_0.08x0.08x0.18_proxy.001_0",
      "primitives": [
        {
          "attributes": {
            "NORMAL": 1,
            "POSITION": 0
          },
          "indices": 2,
          "material": 0,
          "mode": 4
        }
      ]
    },
    {
      "name": "Glass_0.08x0.08x0.18_proxy.001_1",
      "primitives": [
        {
          "attributes": {
            "NORMAL": 4,
            "POSITION": 3
          },
          "indices": 5,
          "material": 1,
          "mode": 4
        }
      ]
    },
    {
      "name": "Glass_0.08x0.08x0.18_proxy.001_2",
      "primitives": [
        {
          "attributes": {
            "NORMAL": 7,
            "POSITION": 6
          },
          "indices": 8,
          "material": 2,
          "mode": 4
        }
      ]
    },
    {
      "name": "Glass_0.08x0.08x0.18_proxy.001_3",
      "primitives": [
        {
          "attributes": {
            "NORMAL": 10,
            "POSITION": 9
          },
          "indices": 11,
          "material": 3,
          "mode": 4
        }
      ]
    },
    {
      "name": "Glass_0.08x0.08x0.18_proxy.001_4",
      "primitives": [
        {
          "attributes": {
            "NORMAL": 13,
            "POSITION": 12
          },
          "indices": 14,
          "material": 4,
          "mode": 4
        }
      ]
    },
    {
      "name": "Glass_0.08x0.08x0.18_proxy.001_5",
      "primitives": [
        {
          "attributes": {
            "NORMAL": 16,
            "POSITION": 15
          },
          "indices": 17,
          "material": 5,
          "mode": 4
        }
      ]
    },
    {
      "name": "Glass_0.08x0.08x0.18_proxy.001_6",
      "primitives": [
        {
          "attributes": {
            "NORMAL": 19,
            "POSITION": 18
          },
          "indices": 20,
          "material": 6,
          "mode": 4
        }
      ]
    },
    {
      "name": "Glass_0.08x0.08x0.18_proxy.001_7",
      "primitives": [
        {
          "attributes": {
            "NORMAL": 22,
            "POSITION": 21
          },
          "indices": 23,
          "material": 7,
          "mode": 4
        }
      ]
    },
    {
      "name": "Glass_0.08x0.08x0.18_proxy.001_8",
      "primitives": [
        {
          "attributes": {
            "NORMAL": 25,
            "POSITION": 24
          },
          "indices": 26,
          "material": 8,
          "mode": 4
        }
      ]
    }
  ],
  "nodes": [
    {
      "children": [
        1
      ],
      "name": "RootNode (gltf orientation matrix)",
      "rotation": [
        -0.70710678118654746,
        -0,
        -0,
        0.70710678118654757
      ]
    },
    {
      "children": [
        2
      ],
      "name": "RootNode (model correction matrix)"
    },
    {
      "children": [
        3
      ],
      "name": "Root"
    },
    {
      "children": [
        4
      ],
      "name": "Glass_0.08x0.08x0.18_proxy.001"
    },
    {
      "children": [
        5,
        6,
        7,
        8,
        9,
        10,
        11,
        12,
        13
      ],
      "name": "Geode"
    },
    {
      "mesh": 0,
      "name": "Glass_0.08x0.08x0.18_proxy.001_0"
    },
    {
      "mesh": 1,
      "name": "Glass_0.08x0.08x0.18_proxy.001_1"
    },
    {
      "mesh": 2,
      "name": "Glass_0.08x0.08x0.18_proxy.001_2"
    },
    {
      "mesh": 3,
      "name": "Glass_0.08x0.08x0.18_proxy.001_3"
    },
    {
      "mesh": 4,
      "name": "Glass_0.08x0.08x0.18_proxy.001_4"
    },
    {
      "mesh": 5,
      "name": "Glass_0.08x0.08x0.18_proxy.001_5"
    },
    {
      "mesh": 6,
      "name": "Glass_0.08x0.08x0.18_proxy.001_6"
    },
    {
      "mesh": 7,
      "name": "Glass_0.08x0.08x0.18_proxy.001_7"
    },
    {
      "mesh": 8,
      "name": "Glass_0.08x0.08x0.18_proxy.001_8"
    }
  ],
  "scene": 0,
  "scenes": [
    {
      "name": "OSG_Scene",
      "nodes": [
        0
      ]
    }
  ]
}

