{
  "accessors": [
    {
      "bufferView": 2,
      "componentType": 5126,
      "count": 546,
      "max": [
        1,
        -0,
        1.7999999523162842
      ],
      "min": [
        -0.10000000149011612,
        -1.1000000238418579,
        0.12747000157833099
      ],
      "type": "VEC3"
    },
    {
      "bufferView": 2,
      "byteOffset": 6552,
      "componentType": 5126,
      "count": 546,
      "max": [
        0.97628927230834961,
        0.97628927230834961,
        1
      ],
      "min": [
        -0.97628927230834961,
        -0.97628927230834961,
        -1
      ],
      "type": "VEC3"
    },
    {
      "bufferView": 3,
      "componentType": 5126,
      "count": 546,
      "max": [
        0,
        0,
        0,
        1
      ],
      "min": [
        0,
        0,
        0,
        1
      ],
      "type": "VEC4"
    },
    {
      "bufferView": 0,
      "componentType": 5125,
      "count": 882,
      "max": [
        545
      ],
      "min": [
        0
      ],
      "type": "SCALAR"
    },
    {
      "bufferView": 2,
      "byteOffset": 13104,
      "componentType": 5126,
      "count": 8,
      "max": [
        0.57965999841690063,
        -0.44168001413345337,
        0.51142001152038574
      ],
      "min": [
        0.29168000817298889,
        -0.72966998815536499,
        0.51142001152038574
      ],
      "type": "VEC3"
    },
    {
      "bufferView": 2,
      "byteOffset": 13200,
      "componentType": 5126,
      "count": 8,
      "max": [
        -0,
        0,
        1
      ],
      "min": [
        -0,
        0,
        1
      ],
      "type": "VEC3"
    },
    {
      "bufferView": 3,
      "byteOffset": 8736,
      "componentType": 5126,
      "count": 8,
      "max": [
        0,
        0,
        0,
        1
      ],
      "min": [
        0,
        0,
        0,
        1
      ],
      "type": "VEC4"
    },
    {
      "bufferView": 0,
      "byteOffset": 3528,
      "componentType": 5125,
      "count": 18,
      "max": [
        7
      ],
      "min": [
        0
      ],
      "type": "SCALAR"
    },
    {
      "bufferView": 2,
      "byteOffset": 13296,
      "componentType": 5126,
      "count": 24,
      "max": [
        0.46395000815391541,
        -0.55738997459411621,
        1.0099999904632568
      ],
      "min": [
        0.40738999843597412,
        -0.61396002769470215,
        0.76999998092651367
      ],
      "type": "VEC3"
    },
    {
      "bufferView": 2,
      "byteOffset": 13584,
      "componentType": 5126,
      "count": 24,
      "max": [
        0.70710676908493042,
        0.70710676908493042,
        1
      ],
      "min": [
        -0.70710676908493042,
        -0.70710676908493042,
        -1
      ],
      "type": "VEC3"
    },
    {
      "bufferView": 3,
      "byteOffset": 8864,
      "componentType": 5126,
      "count": 24,
      "max": [
        0,
        0,
        0,
        1
      ],
      "min": [
        0,
        0,
        0,
        1
      ],
      "type": "VEC4"
    },
    {
      "bufferView": 0,
      "byteOffset": 3600,
      "componentType": 5125,
      "count": 36,
      "max": [
        23
      ],
      "min": [
        0
      ],
      "type": "SCALAR"
    },
    {
      "bufferView": 2,
      "byteOffset": 13872,
      "componentType": 5126,
      "count": 153,
      "max": [
        1,
        -0,
        1.6000000238418579
      ],
      "min": [
        -0.30000001192092896,
        -1.2999999523162842,
        0
      ],
      "type": "VEC3"
    },
    {
      "bufferView": 2,
      "byteOffset": 15708,
      "componentType": 5126,
      "count": 153,
      "max": [
        1,
        1,
        1
      ],
      "min": [
        -0.70710676908493042,
        -0.70710676908493042,
        -1
      ],
      "type": "VEC3"
    },
    {
      "bufferView": 3,
      "byteOffset": 9248,
      "componentType": 5126,
      "count": 153,
      "max": [
        0,
        0,
        0,
        1
      ],
      "min": [
        0,
        0,
        0,
        1
      ],
      "type": "VEC4"
    },
    {
      "bufferView": 0,
      "byteOffset": 3744,
      "componentType": 5125,
      "count": 297,
      "max": [
        152
      ],
      "min": [
        0
      ],
      "type": "SCALAR"
    },
    {
      "bufferView": 2,
      "byteOffset": 17544,
      "componentType": 5126,
      "count": 157,
      "max": [
        0.89999997615814209,
        -0.10000000149011612,
        1.3999999761581421
      ],
      "min": [
        0.017160000279545784,
        -0.98284000158309937,
        0.20000000298023224
      ],
      "type": "VEC3"
    },
    {
      "bufferView": 2,
      "byteOffset": 19428,
      "componentType": 5126,
      "count": 157,
      "max": [
        0.70710676908493042,
        0.70710676908493042,
        1
      ],
      "min": [
        -0.92388087511062622,
        -0.92388087511062622,
        -1
      ],
      "type": "VEC3"
    },
    {
      "bufferView": 3,
      "byteOffset": 11696,
      "componentType": 5126,
      "count": 157,
      "max": [
        0,
        0,
        0,
        1
      ],
      "min": [
        0,
        0,
        0,
        1
      ],
      "type": "VEC4"
    },
    {
      "bufferView": 0,
      "byteOffset": 4932,
      "componentType": 5125,
      "count": 255,
      "max": [
        156
      ],
      "min": [
        0
      ],
      "type": "SCALAR"
    },
    {
      "bufferView": 2,
      "byteOffset": 21312,
      "componentType": 5126,
      "count": 145,
      "max": [
        0.71213001012802124,
        -0.28786998987197876,
        2.9000000953674316
      ],
      "min": [
        0.28786998987197876,
        -0.71223998069763184,
        0.21103000640869141
      ],
      "type": "VEC3"
    },
    {
      "bufferView": 2,
      "byteOffset": 23052,
      "componentType": 5126,
      "count": 145,
      "max": [
        0.89019274711608887,
        1,
        1
      ],
      "min": [
        -0.89019274711608887,
        -1,
        -1
      ],
      "type": "VEC3"
    },
    {
      "bufferView": 3,
      "byteOffset": 14208,
      "componentType": 5126,
      "count": 145,
      "max": [
        0.7071068286895752,
        0.7071068286895752,
        1,
        1
      ],
      "min": [
        -0.7071068286895752,
        -0.7071068286895752,
        -1,
        1
      ],
      "type": "VEC4"
    },
    {
      "bufferView": 0,
      "byteOffset": 5952,
      "componentType": 5125,
      "count": 228,
      "max": [
        144
      ],
      "min": [
        0
      ],
      "type": "SCALAR"
    },
    {
      "bufferView": 2,
      "byteOffset": 24792,
      "componentType": 5126,
      "count": 4,
      "max": [
        0.64142000675201416,
        -0.35857999324798584,
        2.8499999046325684
      ],
      "min": [
        0.35857999324798584,
        -0.64142000675201416,
        2.25
      ],
      "type": "VEC3"
    },
    {
      "bufferView": 2,
      "byteOffset": 24840,
      "componentType": 5126,
      "count": 4,
      "max": [
        -0.70710676908493042,
        -0.70710676908493042,
        0
      ],
      "min": [
        -0.70710676908493042,
        -0.70710676908493042,
        0
      ],
      "type": "VEC3"
    },
    {
      "bufferView": 3,
      "byteOffset": 16528,
      "componentType": 5126,
      "count": 4,
      "max": [
        0.7071068286895752,
        -0.7071068286895752,
        0,
        1
      ],
      "min": [
        0.7071068286895752,
        -0.7071068286895752,
        0,
        1
      ],
      "type": "VEC4"
    },
    {
      "bufferView": 1,
      "componentType": 5126,
      "count": 4,
      "max": [
        0.83332997560501099,
        1
      ],
      "min": [
        0.16666999459266663,
        -0
      ],
      "type": "VEC2"
    },
    {
      "bufferView": 0,
      "byteOffset": 6864,
      "componentType": 5125,
      "count": 6,
      "max": [
        3
      ],
      "min": [
        0
      ],
      "type": "SCALAR"
    },
    {
      "bufferView": 2,
      "byteOffset": 24888,
      "componentType": 5126,
      "count": 184,
      "max": [
        0.24792000651359558,
        -0.13287000358104706,
        1.8700000047683716
      ],
      "min": [
        -0.0066300001926720142,
        -0.38741999864578247,
        1.6000000238418579
      ],
      "type": "VEC3"
    },
    {
      "bufferView": 2,
      "byteOffset": 27096,
      "componentType": 5126,
      "count": 184,
      "max": [
        0.70710676908493042,
        0.70710676908493042,
        1
      ],
      "min": [
        -0.70710676908493042,
        -0.70710676908493042,
        -1
      ],
      "type": "VEC3"
    },
    {
      "bufferView": 3,
      "byteOffset": 16592,
      "componentType": 5126,
      "count": 184,
      "max": [
        0,
        0,
        0,
        1
      ],
      "min": [
        0,
        0,
        0,
        1
      ],
      "type": "VEC4"
    },
    {
      "bufferView": 0,
      "byteOffset": 6888,
      "componentType": 5125,
      "count": 312,
      "max": [
        183
      ],
      "min": [
        0
      ],
      "type": "SCALAR"
    },
    {
      "bufferView": 2,
      "byteOffset": 29304,
      "componentType": 5126,
      "count": 108,
      "max": [
        0.8451799750328064,
        -0.15408000349998474,
        2.0199999809265137
      ],
      "min": [
        0.014580000191926956,
        -0.93648999929428101,
        1.6000000238418579
      ],
      "type": "VEC3"
    },
    {
      "bufferView": 2,
      "byteOffset": 30600,
      "componentType": 5126,
      "count": 108,
      "max": [
        0.70710676908493042,
        0.70710676908493042,
        1
      ],
      "min": [
        -0.70710676908493042,
        -0.70710676908493042,
        -1
      ],
      "type": "VEC3"
    },
    {
      "bufferView": 3,
      "byteOffset": 19536,
      "componentType": 5126,
      "count": 108,
      "max": [
        0,
        0,
        0,
        1
      ],
      "min": [
        0,
        0,
        0,
        1
      ],
      "type": "VEC4"
    },
    {
      "bufferView": 0,
      "byteOffset": 8136,
      "componentType": 5125,
      "count": 162,
      "max": [
        107
      ],
      "min": [
        0
      ],
      "type": "SCALAR"
    },
    {
      "bufferView": 2,
      "byteOffset": 31896,
      "componentType": 5126,
      "count": 160,
      "max": [
        0.83103001117706299,
        -0.16821999847888947,
        2.1500000953674316
      ],
      "min": [
        0.028720000758767128,
        -0.92234998941421509,
        1.7200000286102295
      ],
      "type": "VEC3"
    },
    {
      "bufferView": 2,
      "byteOffset": 33816,
      "componentType": 5126,
      "count": 160,
      "max": [
        0.94281023740768433,
        0.94281023740768433,
        1
      ],
      "min": [
        -0.94281023740768433,
        -0.94281023740768433,
        -1
      ],
      "type": "VEC3"
    },
    {
      "bufferView": 3,
      "byteOffset": 21264,
      "componentType": 5126,
      "count": 160,
      "max": [
        0,
        0,
        0,
        1
      ],
      "min": [
        0,
        0,
        0,
        1
      ],
      "type": "VEC4"
    },
    {
      "bufferView": 0,
      "byteOffset": 8784,
      "componentType": 5125,
      "count": 180,
      "max": [
        159
      ],
      "min": [
        0
      ],
      "type": "SCALAR"
    }
  ],
  "asset": {
    "generator": "Sketchfab (OSG glTF plugin)",
    "version": "2.0"
  },
  "bufferViews": [
    {
      "buffer": 0,
      "byteLength": 9504,
      "byteOffset": 0,
      "name": "floatBufferViews",
      "target": 34963
    },
    {
      "buffer": 0,
      "byteLength": 32,
      "byteOffset": 9504,
      "byteStride": 8,
      "name": "floatBufferViews",
      "target": 34962
    },
    {
      "buffer": 0,
      "byteLength": 35736,
      "byteOffset": 9536,
      "byteStride": 12,
      "name": "floatBufferViews",
      "target": 34962
    },
    {
      "buffer": 0,
      "byteLength": 23824,
      "byteOffset": 45272,
      "byteStride": 16,
      "name": "floatBufferViews",
      "target": 34962
    }
  ],
  "buffers": [
    {
      "byteLength": 69096,
      "uri": "scene.bin"
    }
  ],
  "images": [
    {
      "uri": "textures/Canvas01.001_baseColor.png"
    }
  ],
  "materials": [
    {
      "doubleSided": true,
      "name": "Cooper.001",
      "pbrMetallicRoughness": {
        "baseColorFactor": [
          0.30319264530000001,
          0.094198152399999999,
          0.044307395800000003,
          1
        ],
        "metallicFactor": 0.5,
        "roughnessFactor": 0.59999999999999998
      }
    },
    {
      "doubleSided": true,
      "emissiveFactor": [
        0.94196614020000002,
        0.21108028709999999,
        0.050422127400000002
      ],
      "name": "GlowRed.001",
      "pbrMetallicRoughness": {
        "baseColorFactor": [
          0.31853410599999998,
          0.070961147500000002,
          0.017243867699999998,
          1
        ],
        "metallicFactor": 0,
        "roughnessFactor": 0.59999999999999998
      }
    },
    {
      "doubleSided": true,
      "emissiveFactor": [
        0,
        0,
        0
      ],
      "name": "String.001",
      "pbrMetallicRoughness": {
        "baseColorFactor": [
          0.12823218110000001,
          0.086930707100000004,
          0.058814316999999998,
          1
        ],
        "metallicFactor": 0,
        "roughnessFactor": 0.59999999999999998
      }
    },
    {
      "doubleSided": true,
      "emissiveFactor": [
        0,
        0,
        0
      ],
      "name": "Stone.001",
      "pbrMetallicRoughness": {
        "baseColorFactor": [
          0.26225066180000001,
          0.29177066680000002,
          0.28314879539999999,
          1
        ],
        "metallicFactor": 0,
        "roughnessFactor": 0.59999999999999998
      }
    },
    {
      "doubleSided": true,
      "emissiveFactor": [
        0,
        0,
        0
      ],
      "name": "StoneDark.001",
      "pbrMetallicRoughness": {
        "baseColorFactor": [
          0.057024791800000002,
          0.056267160900000002,
          0.057788319900000003,
          1
        ],
        "metallicFactor": 0,
        "roughnessFactor": 0.59999999999999998
      }
    },
    {
      "doubleSided": true,
      "emissiveFactor": [
        0,
        0,
        0
      ],
      "name": "Wood.001",
      "pbrMetallicRoughness": {
        "baseColorFactor": [
          0.12823618949999999,
          0.066952794800000007,
          0.0434705913,
          1
        ],
        "metallicFactor": 0,
        "roughnessFactor": 0.59999999999999998
      }
    },
    {
      "doubleSided": true,
      "emissiveFactor": [
        0,
        0,
        0
      ],
      "name": "Canvas01.001",
      "pbrMetallicRoughness": {
        "baseColorFactor": [
          1,
          1,
          1,
          1
        ],
        "baseColorTexture": {
          "index": 0,
          "texCoord": 0
        },
        "metallicFactor": 0,
        "roughnessFactor": 0.59999999999999998
      }
    },
    {
      "doubleSided": true,
      "name": "Gold.001",
      "pbrMetallicRoughness": {
        "baseColorFactor": [
          0.60382676120000001,
          0.27667182680000002,
          0.011693988900000001,
          1
        ],
        "metallicFactor": 0.5,
        "roughnessFactor": 0.59999999999999998
      }
    },
    {
      "alphaMode": "BLEND",
      "doubleSided": true,
      "emissiveFactor": [
        0,
        0,
        0
      ],
      "name": "Candle.001",
      "pbrMetallicRoughness": {
        "baseColorFactor": [
          1,
          1,
          1,
          0.90000000000000002
        ],
        "metallicFactor": 0,
        "roughnessFactor": 0.59999999999999998
      }
    },
    {
      "doubleSided": true,
      "emissiveFactor": [
        1,
        0.66490307260000003,
        0.1089605528
      ],
      "name": "CandleFlame.001",
      "pbrMetallicRoughness": {
        "baseColorFactor": [
          0.80000007149999997,
          0.33398842810000001,
          0.054717320899999998,
          1
        ],
        "metallicFactor": 0,
        "roughnessFactor": 0.59999999999999998
      }
    }
  ],
  "meshes": [
    {
      "name": "FirePlace_1.3x1.3x1.6_proxy.001_0",
      "primitives": [
        {
          "attributes": {
            "NORMAL": 1,
            "POSITION": 0,
            "TANGENT": 2
          },
          "indices": 3,
          "material": 0,
          "mode": 4
        }
      ]
    },
    {
      "name": "FirePlace_1.3x1.3x1.6_proxy.001_1",
      "primitives": [
        {
          "attributes": {
            "NORMAL": 5,
            "POSITION": 4,
            "TANGENT": 6
          },
          "indices": 7,
          "material": 1,
          "mode": 4
        }
      ]
    },
    {
      "name": "FirePlace_1.3x1.3x1.6_proxy.001_2",
      "primitives": [
        {
          "attributes": {
            "NORMAL": 9,
            "POSITION": 8,
            "TANGENT": 10
          },
          "indices": 11,
          "material": 2,
          "mode": 4
        }
      ]
    },
    {
      "name": "FirePlace_1.3x1.3x1.6_proxy.001_3",
      "primitives": [
        {
          "attributes": {
            "NORMAL": 13,
            "POSITION": 12,
            "TANGENT": 14
          },
          "indices": 15,
          "material": 3,
          "mode": 4
        }
      ]
    },
    {
      "name": "FirePlace_1.3x1.3x1.6_proxy.001_4",
      "primitives": [
        {
          "attributes": {
            "NORMAL": 17,
            "POSITION": 16,
            "TANGENT": 18
          },
          "indices": 19,
          "material": 4,
          "mode": 4
        }
      ]
    },
    {
      "name": "FirePlace_1.3x1.3x1.6_proxy.001_5",
      "primitives": [
        {
          "attributes": {
            "NORMAL": 21,
            "POSITION": 20,
            "TANGENT": 22
          },
          "indices": 23,
          "material": 5,
          "mode": 4
        }
      ]
    },
    {
      "name": "FirePlace_1.3x1.3x1.6_proxy.001_6",
      "primitives": [
        {
          "attributes": {
            "NORMAL": 25,
            "POSITION": 24,
            "TANGENT": 26,
            "TEXCOORD_0": 27
          },
          "indices": 28,
          "material": 6,
          "mode": 4
        }
      ]
    },
    {
      "name": "FirePlace_1.3x1.3x1.6_proxy.001_7",
      "primitives": [
        {
          "attributes": {
            "NORMAL": 30,
            "POSITION": 29,
            "TANGENT": 31
          },
          "indices": 32,
          "material": 7,
          "mode": 4
        }
      ]
    },
    {
      "name": "FirePlace_1.3x1.3x1.6_proxy.001_8",
      "primitives": [
        {
          "attributes": {
            "NORMAL": 34,
            "POSITION": 33,
            "TANGENT": 35
          },
          "indices": 36,
          "material": 8,
          "mode": 4
        }
      ]
    },
    {
      "name": "FirePlace_1.3x1.3x1.6_proxy.001_9",
      "primitives": [
        {
          "attributes": {
            "NORMAL": 38,
            "POSITION": 37,
            "TANGENT": 39
          },
          "indices": 40,
          "material": 9,
          "mode": 4
        }
      ]
    }
  ],
  "nodes": [
    {
      "children": [
        1
      ],
      "name": "RootNode (gltf orientation matrix)",
      "rotation": [
        -0.70710678118654746,
        -0,
        -0,
        0.70710678118654757
      ]
    },
    {
      "children": [
        2
      ],
      "name": "RootNode (model correction matrix)"
    },
    {
      "children": [
        3
      ],
      "name": "Root"
    },
    {
      "children": [
        4
      ],
      "matrix": [
        -0,
        1,
        0,
        0,
        -1,
        -0,
        0,
        0,
        0,
        0,
        1,
        0,
        0,
        0,
        0,
        1
      ],
      "name": "FirePlace_1.3x1.3x1.6_proxy.001"
    },
    {
      "children": [
        5,
        6,
        7,
        8,
        9,
        10,
        11,
        12,
        13,
        14
      ],
      "name": "Geode"
    },
    {
      "mesh": 0,
      "name": "FirePlace_1.3x1.3x1.6_proxy.001_0"
    },
    {
      "mesh": 1,
      "name": "FirePlace_1.3x1.3x1.6_proxy.001_1"
    },
    {
      "mesh": 2,
      "name": "FirePlace_1.3x1.3x1.6_proxy.001_2"
    },
    {
      "mesh": 3,
      "name": "FirePlace_1.3x1.3x1.6_proxy.001_3"
    },
    {
      "mesh": 4,
      "name": "FirePlace_1.3x1.3x1.6_proxy.001_4"
    },
    {
      "mesh": 5,
      "name": "FirePlace_1.3x1.3x1.6_proxy.001_5"
    },
    {
      "mesh": 6,
      "name": "FirePlace_1.3x1.3x1.6_proxy.001_6"
    },
    {
      "mesh": 7,
      "name": "FirePlace_1.3x1.3x1.6_proxy.001_7"
    },
    {
      "mesh": 8,
      "name": "FirePlace_1.3x1.3x1.6_proxy.001_8"
    },
    {
      "mesh": 9,
      "name": "FirePlace_1.3x1.3x1.6_proxy.001_9"
    }
  ],
  "samplers": [
    {
      "magFilter": 9729,
      "minFilter": 9987,
      "wrapS": 10497,
      "wrapT": 10497
    }
  ],
  "scene": 0,
  "scenes": [
    {
      "name": "OSG_Scene",
      "nodes": [
        0
      ]
    }
  ],
  "textures": [
    {
      "sampler": 0,
      "source": 0
    }
  ]
}

