{
  "accessors": [
    {
      "bufferView": 1,
      "componentType": 5126,
      "count": 70,
      "max": [
        0.079999998211860657,
        0.02500000037252903,
        0.17000000178813934
      ],
      "min": [
        -0.079999998211860657,
        -0.02500000037252903,
        0
      ],
      "type": "VEC3"
    },
    {
      "bufferView": 1,
      "byteOffset": 840,
      "componentType": 5126,
      "count": 70,
      "max": [
        1,
        1,
        1
      ],
      "min": [
        -1,
        -1,
        -1
      ],
      "type": "VEC3"
    },
    {
      "bufferView": 0,
      "componentType": 5125,
      "count": 144,
      "max": [
        69
      ],
      "min": [
        0
      ],
      "type": "SCALAR"
    },
    {
      "bufferView": 1,
      "byteOffset": 1680,
      "componentType": 5126,
      "count": 28,
      "max": [
        0.05000000074505806,
        0.02500000037252903,
        0.69999998807907104
      ],
      "min": [
        -0.05000000074505806,
        -0.02500000037252903,
        0.17000000178813934
      ],
      "type": "VEC3"
    },
    {
      "bufferView": 1,
      "byteOffset": 2016,
      "componentType": 5126,
      "count": 28,
      "max": [
        0.44720962643623352,
        0.89442920684814453,
        0.40824830532073975
      ],
      "min": [
        -0.44720962643623352,
        -0.89442920684814453,
        0
      ],
      "type": "VEC3"
    },
    {
      "bufferView": 0,
      "byteOffset": 576,
      "componentType": 5125,
      "count": 36,
      "max": [
        27
      ],
      "min": [
        0
      ],
      "type": "SCALAR"
    }
  ],
  "asset": {
    "generator": "Sketchfab (OSG glTF plugin)",
    "version": "2.0"
  },
  "bufferViews": [
    {
      "buffer": 0,
      "byteLength": 720,
      "byteOffset": 0,
      "name": "floatBufferViews",
      "target": 34963
    },
    {
      "buffer": 0,
      "byteLength": 2352,
      "byteOffset": 720,
      "byteStride": 12,
      "name": "floatBufferViews",
      "target": 34962
    }
  ],
  "buffers": [
    {
      "byteLength": 3072,
      "uri": "scene.bin"
    }
  ],
  "materials": [
    {
      "doubleSided": true,
      "emissiveFactor": [
        0,
        0,
        0
      ],
      "name": "Wood.003",
      "pbrMetallicRoughness": {
        "baseColorFactor": [
          0.12823618949999999,
          0.066952794800000007,
          0.0434705913,
          1
        ],
        "metallicFactor": 0,
        "roughnessFactor": 0.59999999999999998
      }
    },
    {
      "doubleSided": true,
      "emissiveFactor": [
        0,
        0,
        0
      ],
      "name": "Metal.003",
      "pbrMetallicRoughness": {
        "baseColorFactor": [
          0.2203762531,
          0.22507911920000001,
          0.23954643310000001,
          1
        ],
        "metallicFactor": 0.5,
        "roughnessFactor": 0.59999999999999998
      }
    }
  ],
  "meshes": [
    {
      "name": "Sword_0.16x0.05x0.7_0",
      "primitives": [
        {
          "attributes": {
            "NORMAL": 1,
            "POSITION": 0
          },
          "indices": 2,
          "material": 0,
          "mode": 4
        }
      ]
    },
    {
      "name": "Sword_0.16x0.05x0.7_1",
      "primitives": [
        {
          "attributes": {
            "NORMAL": 4,
            "POSITION": 3
          },
          "indices": 5,
          "material": 1,
          "mode": 4
        }
      ]
    }
  ],
  "nodes": [
    {
      "children": [
        1
      ],
      "name": "RootNode (gltf orientation matrix)",
      "rotation": [
        -0.70710678118654746,
        -0,
        -0,
        0.70710678118654757
      ]
    },
    {
      "children": [
        2
      ],
      "name": "RootNode (model correction matrix)"
    },
    {
      "children": [
        3
      ],
      "name": "Root"
    },
    {
      "children": [
        4
      ],
      "matrix": [
        -0,
        -1,
        0,
        0,
        1,
        -0,
        0,
        0,
        0,
        0,
        1,
        0,
        0,
        0,
        0,
        1
      ],
      "name": "Sword_0.16x0.05x0.7"
    },
    {
      "children": [
        5,
        6
      ],
      "name": "Geode"
    },
    {
      "mesh": 0,
      "name": "Sword_0.16x0.05x0.7_0"
    },
    {
      "mesh": 1,
      "name": "Sword_0.16x0.05x0.7_1"
    }
  ],
  "scene": 0,
  "scenes": [
    {
      "name": "OSG_Scene",
      "nodes": [
        0
      ]
    }
  ]
}

