{
  "accessors": [
    {
      "bufferView": 2,
      "componentType": 5126,
      "count": 340,
      "max": [
        2.2122299671173096,
        2.2122299671173096,
        1.3999999761581421
      ],
      "min": [
        0.17969000339508057,
        0.17969000339508057,
        0
      ],
      "type": "VEC3"
    },
    {
      "bufferView": 2,
      "byteOffset": 4080,
      "componentType": 5126,
      "count": 340,
      "max": [
        1,
        1,
        1
      ],
      "min": [
        -1,
        -1,
        -1
      ],
      "type": "VEC3"
    },
    {
      "bufferView": 3,
      "componentType": 5126,
      "count": 340,
      "max": [
        1,
        1,
        1,
        1
      ],
      "min": [
        -1,
        -1,
        -1,
        -1
      ],
      "type": "VEC4"
    },
    {
      "bufferView": 0,
      "componentType": 5125,
      "count": 504,
      "max": [
        339
      ],
      "min": [
        0
      ],
      "type": "SCALAR"
    },
    {
      "bufferView": 2,
      "byteOffset": 8160,
      "componentType": 5126,
      "count": 156,
      "max": [
        2.164560079574585,
        1.245959997177124,
        2.3919200897216797
      ],
      "min": [
        1.1459699869155884,
        1.1459599733352661,
        0.39024001359939575
      ],
      "type": "VEC3"
    },
    {
      "bufferView": 2,
      "byteOffset": 10032,
      "componentType": 5126,
      "count": 156,
      "max": [
        1,
        1,
        0.99906688928604126
      ],
      "min": [
        -1,
        -1,
        -0.9807855486869812
      ],
      "type": "VEC3"
    },
    {
      "bufferView": 3,
      "byteOffset": 5440,
      "componentType": 5126,
      "count": 156,
      "max": [
        1,
        1,
        0.98078548908233643,
        1
      ],
      "min": [
        -1,
        -1,
        -0.9807855486869812,
        1
      ],
      "type": "VEC4"
    },
    {
      "bufferView": 0,
      "byteOffset": 2016,
      "componentType": 5125,
      "count": 222,
      "max": [
        155
      ],
      "min": [
        0
      ],
      "type": "SCALAR"
    },
    {
      "bufferView": 2,
      "byteOffset": 11904,
      "componentType": 5126,
      "count": 256,
      "max": [
        1.9350600242614746,
        1.9350600242614746,
        2.1478400230407715
      ],
      "min": [
        0.4568600058555603,
        0.4568600058555603,
        0.55216002464294434
      ],
      "type": "VEC3"
    },
    {
      "bufferView": 2,
      "byteOffset": 14976,
      "componentType": 5126,
      "count": 256,
      "max": [
        0.98353093862533569,
        0.98353093862533569,
        0.96963059902191162
      ],
      "min": [
        -0.98353093862533569,
        -0.98353093862533569,
        -0.96963059902191162
      ],
      "type": "VEC3"
    },
    {
      "bufferView": 3,
      "byteOffset": 7936,
      "componentType": 5126,
      "count": 256,
      "max": [
        0.99999755620956421,
        0.99985522031784058,
        0.49088400602340698,
        1
      ],
      "min": [
        -0.99999785423278809,
        -0.99989384412765503,
        -0.37462779879570007,
        1
      ],
      "type": "VEC4"
    },
    {
      "bufferView": 1,
      "componentType": 5126,
      "count": 256,
      "max": [
        0.95977002382278442,
        0.95117998123168945
      ],
      "min": [
        0.049539998173713684,
        0.49399000406265259
      ],
      "type": "VEC2"
    },
    {
      "bufferView": 0,
      "byteOffset": 2904,
      "componentType": 5125,
      "count": 384,
      "max": [
        255
      ],
      "min": [
        0
      ],
      "type": "SCALAR"
    }
  ],
  "asset": {
    "generator": "Sketchfab (OSG glTF plugin)",
    "version": "2.0"
  },
  "bufferViews": [
    {
      "buffer": 0,
      "byteLength": 4440,
      "byteOffset": 0,
      "name": "floatBufferViews",
      "target": 34963
    },
    {
      "buffer": 0,
      "byteLength": 2048,
      "byteOffset": 4440,
      "byteStride": 8,
      "name": "floatBufferViews",
      "target": 34962
    },
    {
      "buffer": 0,
      "byteLength": 18048,
      "byteOffset": 6488,
      "byteStride": 12,
      "name": "floatBufferViews",
      "target": 34962
    },
    {
      "buffer": 0,
      "byteLength": 12032,
      "byteOffset": 24536,
      "byteStride": 16,
      "name": "floatBufferViews",
      "target": 34962
    }
  ],
  "buffers": [
    {
      "byteLength": 36568,
      "uri": "scene.bin"
    }
  ],
  "images": [
    {
      "uri": "textures/Map_baseColor.png"
    }
  ],
  "materials": [
    {
      "doubleSided": true,
      "emissiveFactor": [
        0,
        0,
        0
      ],
      "name": "Wood.005",
      "pbrMetallicRoughness": {
        "baseColorFactor": [
          0.12823618949999999,
          0.066952794800000007,
          0.0434705913,
          1
        ],
        "metallicFactor": 0,
        "roughnessFactor": 0.59999999999999998
      }
    },
    {
      "doubleSided": true,
      "name": "Gold.001",
      "pbrMetallicRoughness": {
        "baseColorFactor": [
          0.60382676120000001,
          0.27667182680000002,
          0.011693988900000001,
          1
        ],
        "metallicFactor": 0.5,
        "roughnessFactor": 0.59999999999999998
      }
    },
    {
      "doubleSided": true,
      "emissiveFactor": [
        0,
        0,
        0
      ],
      "name": "Map",
      "pbrMetallicRoughness": {
        "baseColorFactor": [
          1,
          1,
          1,
          1
        ],
        "baseColorTexture": {
          "index": 0,
          "texCoord": 0
        },
        "metallicFactor": 0,
        "roughnessFactor": 0.5
      }
    }
  ],
  "meshes": [
    {
      "name": "Globe_1x1x1_0",
      "primitives": [
        {
          "attributes": {
            "NORMAL": 1,
            "POSITION": 0,
            "TANGENT": 2
          },
          "indices": 3,
          "material": 0,
          "mode": 4
        }
      ]
    },
    {
      "name": "Globe_1x1x1_1",
      "primitives": [
        {
          "attributes": {
            "NORMAL": 5,
            "POSITION": 4,
            "TANGENT": 6
          },
          "indices": 7,
          "material": 1,
          "mode": 4
        }
      ]
    },
    {
      "name": "Globe_1x1x1_2",
      "primitives": [
        {
          "attributes": {
            "NORMAL": 9,
            "POSITION": 8,
            "TANGENT": 10,
            "TEXCOORD_0": 11
          },
          "indices": 12,
          "material": 2,
          "mode": 4
        }
      ]
    }
  ],
  "nodes": [
    {
      "children": [
        1
      ],
      "name": "RootNode (gltf orientation matrix)",
      "rotation": [
        -0.70710678118654746,
        -0,
        -0,
        0.70710678118654757
      ]
    },
    {
      "children": [
        2
      ],
      "name": "RootNode (model correction matrix)"
    },
    {
      "children": [
        3
      ],
      "name": "Root"
    },
    {
      "children": [
        4
      ],
      "matrix": [
        0.41807000000000005,
        0,
        0,
        0,
        0,
        0.41807000000000005,
        0,
        0,
        0,
        0,
        0.41807000000000005,
        0,
        0,
        0,
        0,
        1
      ],
      "name": "Globe_1x1x1"
    },
    {
      "children": [
        5,
        6,
        7
      ],
      "name": "Geode"
    },
    {
      "mesh": 0,
      "name": "Globe_1x1x1_0"
    },
    {
      "mesh": 1,
      "name": "Globe_1x1x1_1"
    },
    {
      "mesh": 2,
      "name": "Globe_1x1x1_2"
    }
  ],
  "samplers": [
    {
      "magFilter": 9729,
      "minFilter": 9987,
      "wrapS": 10497,
      "wrapT": 10497
    }
  ],
  "scene": 0,
  "scenes": [
    {
      "name": "OSG_Scene",
      "nodes": [
        0
      ]
    }
  ],
  "textures": [
    {
      "sampler": 0,
      "source": 0
    }
  ]
}

