{
  "accessors": [
    {
      "bufferView": 1,
      "componentType": 5126,
      "count": 394,
      "max": [
        1,
        1,
        2.5142900943756104
      ],
      "min": [
        -1.25,
        -0,
        -0.80000001192092896
      ],
      "type": "VEC3"
    },
    {
      "bufferView": 1,
      "byteOffset": 4728,
      "componentType": 5126,
      "count": 394,
      "max": [
        1,
        1,
        1
      ],
      "min": [
        -1,
        -1,
        -1
      ],
      "type": "VEC3"
    },
    {
      "bufferView": 0,
      "componentType": 5125,
      "count": 714,
      "max": [
        393
      ],
      "min": [
        0
      ],
      "type": "SCALAR"
    },
    {
      "bufferView": 1,
      "byteOffset": 9456,
      "componentType": 5126,
      "count": 3289,
      "max": [
        1.2999999523162842,
        1.0222200155258179,
        0.80000001192092896
      ],
      "min": [
        -2.0499999523162842,
        -0.13333000242710114,
        0
      ],
      "type": "VEC3"
    },
    {
      "bufferView": 1,
      "byteOffset": 48924,
      "componentType": 5126,
      "count": 3289,
      "max": [
        1,
        1,
        1
      ],
      "min": [
        -1,
        -1,
        -1
      ],
      "type": "VEC3"
    },
    {
      "bufferView": 0,
      "byteOffset": 2856,
      "componentType": 5125,
      "count": 7344,
      "max": [
        3288
      ],
      "min": [
        0
      ],
      "type": "SCALAR"
    },
    {
      "bufferView": 1,
      "byteOffset": 88392,
      "componentType": 5126,
      "count": 809,
      "max": [
        1.375,
        1.0222200155258179,
        2.5428600311279297
      ],
      "min": [
        -2.1250100135803223,
        -0.16666999459266663,
        0.65714001655578613
      ],
      "type": "VEC3"
    },
    {
      "bufferView": 1,
      "byteOffset": 98100,
      "componentType": 5126,
      "count": 809,
      "max": [
        1,
        1,
        0.65850603580474854
      ],
      "min": [
        -1,
        -1,
        -0.65856975317001343
      ],
      "type": "VEC3"
    },
    {
      "bufferView": 0,
      "byteOffset": 32232,
      "componentType": 5125,
      "count": 1776,
      "max": [
        808
      ],
      "min": [
        0
      ],
      "type": "SCALAR"
    },
    {
      "bufferView": 1,
      "byteOffset": 107808,
      "componentType": 5126,
      "count": 8922,
      "max": [
        1.8387399911880493,
        1.0222200155258179,
        2.4857099056243896
      ],
      "min": [
        -2.0499999523162842,
        -0.13333000242710114,
        -0.80000001192092896
      ],
      "type": "VEC3"
    },
    {
      "bufferView": 1,
      "byteOffset": 214872,
      "componentType": 5126,
      "count": 8922,
      "max": [
        1,
        1,
        1
      ],
      "min": [
        -1,
        -1,
        -1
      ],
      "type": "VEC3"
    },
    {
      "bufferView": 0,
      "byteOffset": 39336,
      "componentType": 5125,
      "count": 19080,
      "max": [
        8921
      ],
      "min": [
        0
      ],
      "type": "SCALAR"
    },
    {
      "bufferView": 1,
      "byteOffset": 321936,
      "componentType": 5126,
      "count": 511,
      "max": [
        1.2875000238418579,
        1.0166699886322021,
        2.428570032119751
      ],
      "min": [
        -2.0374999046325684,
        -0.12290000170469284,
        -0
      ],
      "type": "VEC3"
    },
    {
      "bufferView": 1,
      "byteOffset": 328068,
      "componentType": 5126,
      "count": 511,
      "max": [
        1,
        1,
        1
      ],
      "min": [
        -1,
        -1,
        -1
      ],
      "type": "VEC3"
    },
    {
      "bufferView": 0,
      "byteOffset": 115656,
      "componentType": 5125,
      "count": 1200,
      "max": [
        510
      ],
      "min": [
        0
      ],
      "type": "SCALAR"
    },
    {
      "bufferView": 1,
      "byteOffset": 334200,
      "componentType": 5126,
      "count": 78,
      "max": [
        0.31859999895095825,
        1.0022200345993042,
        1.5641200542449951
      ],
      "min": [
        -1.91389000415802,
        -0.072839997708797455,
        0.94286000728607178
      ],
      "type": "VEC3"
    },
    {
      "bufferView": 1,
      "byteOffset": 335136,
      "componentType": 5126,
      "count": 78,
      "max": [
        1,
        0.91381078958511353,
        0
      ],
      "min": [
        0,
        -1,
        0
      ],
      "type": "VEC3"
    },
    {
      "bufferView": 0,
      "byteOffset": 120456,
      "componentType": 5125,
      "count": 102,
      "max": [
        77
      ],
      "min": [
        0
      ],
      "type": "SCALAR"
    },
    {
      "bufferView": 1,
      "byteOffset": 336072,
      "componentType": 5126,
      "count": 78,
      "max": [
        0.31859999895095825,
        1.0199999809265137,
        1.5641200542449951
      ],
      "min": [
        -1.9421800374984741,
        -0.085409998893737793,
        0.94286000728607178
      ],
      "type": "VEC3"
    },
    {
      "bufferView": 1,
      "byteOffset": 337008,
      "componentType": 5126,
      "count": 78,
      "max": [
        -0,
        1,
        0
      ],
      "min": [
        -1,
        -0.91381078958511353,
        0
      ],
      "type": "VEC3"
    },
    {
      "bufferView": 0,
      "byteOffset": 120864,
      "componentType": 5125,
      "count": 102,
      "max": [
        77
      ],
      "min": [
        0
      ],
      "type": "SCALAR"
    },
    {
      "bufferView": 1,
      "byteOffset": 337944,
      "componentType": 5126,
      "count": 410,
      "max": [
        -0.47499999403953552,
        0.77777999639511108,
        0.76358002424240112
      ],
      "min": [
        -0.75,
        0.65556001663208008,
        0.37928000092506409
      ],
      "type": "VEC3"
    },
    {
      "bufferView": 1,
      "byteOffset": 342864,
      "componentType": 5126,
      "count": 410,
      "max": [
        0.98169475793838501,
        0.99630296230316162,
        1
      ],
      "min": [
        -0.98169475793838501,
        -0.99630296230316162,
        -1
      ],
      "type": "VEC3"
    },
    {
      "bufferView": 0,
      "byteOffset": 121272,
      "componentType": 5125,
      "count": 672,
      "max": [
        409
      ],
      "min": [
        0
      ],
      "type": "SCALAR"
    },
    {
      "bufferView": 1,
      "byteOffset": 347784,
      "componentType": 5126,
      "count": 8,
      "max": [
        -0.56757998466491699,
        0.73106998205184937,
        0.4889799952507019
      ],
      "min": [
        -0.63958001136779785,
        0.69907999038696289,
        0.4889799952507019
      ],
      "type": "VEC3"
    },
    {
      "bufferView": 1,
      "byteOffset": 347880,
      "componentType": 5126,
      "count": 8,
      "max": [
        0,
        0,
        1
      ],
      "min": [
        0,
        0,
        1
      ],
      "type": "VEC3"
    },
    {
      "bufferView": 0,
      "byteOffset": 123960,
      "componentType": 5125,
      "count": 18,
      "max": [
        7
      ],
      "min": [
        0
      ],
      "type": "SCALAR"
    },
    {
      "bufferView": 1,
      "byteOffset": 347976,
      "componentType": 5126,
      "count": 24,
      "max": [
        -0.59650999307632446,
        0.71821999549865723,
        0.63142997026443481
      ],
      "min": [
        -0.61065000295639038,
        0.71192997694015503,
        0.56286001205444336
      ],
      "type": "VEC3"
    },
    {
      "bufferView": 1,
      "byteOffset": 348264,
      "componentType": 5126,
      "count": 24,
      "max": [
        0.40614032745361328,
        0.91381078958511353,
        1
      ],
      "min": [
        -0.40614032745361328,
        -0.91381078958511353,
        -1
      ],
      "type": "VEC3"
    },
    {
      "bufferView": 0,
      "byteOffset": 124032,
      "componentType": 5125,
      "count": 36,
      "max": [
        23
      ],
      "min": [
        0
      ],
      "type": "SCALAR"
    }
  ],
  "asset": {
    "generator": "Sketchfab (OSG glTF plugin)",
    "version": "2.0"
  },
  "bufferViews": [
    {
      "buffer": 0,
      "byteLength": 124176,
      "byteOffset": 0,
      "name": "floatBufferViews",
      "target": 34963
    },
    {
      "buffer": 0,
      "byteLength": 348552,
      "byteOffset": 124176,
      "byteStride": 12,
      "name": "floatBufferViews",
      "target": 34962
    }
  ],
  "buffers": [
    {
      "byteLength": 472728,
      "uri": "scene.bin"
    }
  ],
  "materials": [
    {
      "doubleSided": true,
      "emissiveFactor": [
        0,
        0,
        0
      ],
      "name": "StoneDark",
      "pbrMetallicRoughness": {
        "baseColorFactor": [
          0.057024791800000002,
          0.056267160900000002,
          0.057788319900000003,
          1
        ],
        "metallicFactor": 0,
        "roughnessFactor": 1
      }
    },
    {
      "doubleSided": true,
      "emissiveFactor": [
        0,
        0,
        0
      ],
      "name": "Stone",
      "pbrMetallicRoughness": {
        "baseColorFactor": [
          0.26225066180000001,
          0.29177066680000002,
          0.28314879539999999,
          1
        ],
        "metallicFactor": 0,
        "roughnessFactor": 1
      }
    },
    {
      "doubleSided": true,
      "emissiveFactor": [
        0,
        0,
        0
      ],
      "name": "RoofRed",
      "pbrMetallicRoughness": {
        "baseColorFactor": [
          0.79910278320000006,
          0.1620294005,
          0.061246056100000001,
          1
        ],
        "metallicFactor": 0,
        "roughnessFactor": 1
      }
    },
    {
      "doubleSided": true,
      "emissiveFactor": [
        0,
        0,
        0
      ],
      "name": "Wood",
      "pbrMetallicRoughness": {
        "baseColorFactor": [
          0.12823618949999999,
          0.066952794800000007,
          0.0434705913,
          1
        ],
        "metallicFactor": 0,
        "roughnessFactor": 1
      }
    },
    {
      "doubleSided": true,
      "emissiveFactor": [
        0,
        0,
        0
      ],
      "name": "Wall",
      "pbrMetallicRoughness": {
        "baseColorFactor": [
          0.7835380435,
          0.71569359300000002,
          0.67954266070000002,
          1
        ],
        "metallicFactor": 0,
        "roughnessFactor": 1
      }
    },
    {
      "doubleSided": true,
      "emissiveFactor": [
        0.79910273799999998,
        0.61049557080000005,
        0.35153259949999999
      ],
      "name": "WindowIn",
      "pbrMetallicRoughness": {
        "baseColorFactor": [
          0.80000007149999997,
          0.61185216899999995,
          0.35564294460000001,
          1
        ],
        "metallicFactor": 0,
        "roughnessFactor": 0.59999999999999998
      }
    },
    {
      "doubleSided": true,
      "emissiveFactor": [
        0.79910273799999998,
        0.61049557080000005,
        0.35153259949999999
      ],
      "name": "WindowOut",
      "pbrMetallicRoughness": {
        "baseColorFactor": [
          0.55972433089999996,
          0.80000007149999997,
          0.80000007149999997,
          1
        ],
        "metallicFactor": 0,
        "roughnessFactor": 0.59999999999999998
      }
    },
    {
      "doubleSided": true,
      "name": "Cooper",
      "pbrMetallicRoughness": {
        "baseColorFactor": [
          0.30319264530000001,
          0.094198152399999999,
          0.044307395800000003,
          1
        ],
        "metallicFactor": 0.5,
        "roughnessFactor": 0.5
      }
    },
    {
      "doubleSided": true,
      "emissiveFactor": [
        0.94196614020000002,
        0.21108028709999999,
        0.050422127400000002
      ],
      "name": "GlowRed",
      "pbrMetallicRoughness": {
        "baseColorFactor": [
          0.31853410599999998,
          0.070961147500000002,
          0.017243867699999998,
          1
        ],
        "metallicFactor": 0,
        "roughnessFactor": 0.59999999999999998
      }
    },
    {
      "doubleSided": true,
      "emissiveFactor": [
        0,
        0,
        0
      ],
      "name": "String",
      "pbrMetallicRoughness": {
        "baseColorFactor": [
          0.12823218110000001,
          0.086930707100000004,
          0.058814316999999998,
          1
        ],
        "metallicFactor": 0,
        "roughnessFactor": 0.59999999999999998
      }
    }
  ],
  "meshes": [
    {
      "name": "Base_1x1x0.8_proxy.005_0",
      "primitives": [
        {
          "attributes": {
            "NORMAL": 1,
            "POSITION": 0
          },
          "indices": 2,
          "material": 0,
          "mode": 4
        }
      ]
    },
    {
      "name": "Base_1x1x0.8_proxy.005_1",
      "primitives": [
        {
          "attributes": {
            "NORMAL": 4,
            "POSITION": 3
          },
          "indices": 5,
          "material": 1,
          "mode": 4
        }
      ]
    },
    {
      "name": "Base_1x1x0.8_proxy.005_2",
      "primitives": [
        {
          "attributes": {
            "NORMAL": 7,
            "POSITION": 6
          },
          "indices": 8,
          "material": 2,
          "mode": 4
        }
      ]
    },
    {
      "name": "Base_1x1x0.8_proxy.005_3",
      "primitives": [
        {
          "attributes": {
            "NORMAL": 10,
            "POSITION": 9
          },
          "indices": 11,
          "material": 3,
          "mode": 4
        }
      ]
    },
    {
      "name": "Base_1x1x0.8_proxy.005_4",
      "primitives": [
        {
          "attributes": {
            "NORMAL": 13,
            "POSITION": 12
          },
          "indices": 14,
          "material": 4,
          "mode": 4
        }
      ]
    },
    {
      "name": "Base_1x1x0.8_proxy.005_5",
      "primitives": [
        {
          "attributes": {
            "NORMAL": 16,
            "POSITION": 15
          },
          "indices": 17,
          "material": 5,
          "mode": 4
        }
      ]
    },
    {
      "name": "Base_1x1x0.8_proxy.005_6",
      "primitives": [
        {
          "attributes": {
            "NORMAL": 19,
            "POSITION": 18
          },
          "indices": 20,
          "material": 6,
          "mode": 4
        }
      ]
    },
    {
      "name": "Base_1x1x0.8_proxy.005_7",
      "primitives": [
        {
          "attributes": {
            "NORMAL": 22,
            "POSITION": 21
          },
          "indices": 23,
          "material": 7,
          "mode": 4
        }
      ]
    },
    {
      "name": "Base_1x1x0.8_proxy.005_8",
      "primitives": [
        {
          "attributes": {
            "NORMAL": 25,
            "POSITION": 24
          },
          "indices": 26,
          "material": 8,
          "mode": 4
        }
      ]
    },
    {
      "name": "Base_1x1x0.8_proxy.005_9",
      "primitives": [
        {
          "attributes": {
            "NORMAL": 28,
            "POSITION": 27
          },
          "indices": 29,
          "material": 9,
          "mode": 4
        }
      ]
    }
  ],
  "nodes": [
    {
      "children": [
        1
      ],
      "name": "RootNode (gltf orientation matrix)",
      "rotation": [
        -0.70710678118654746,
        -0,
        -0,
        0.70710678118654757
      ]
    },
    {
      "children": [
        2
      ],
      "name": "RootNode (model correction matrix)"
    },
    {
      "children": [
        3,
        10
      ],
      "name": "Root"
    },
    {
      "children": [
        4,
        6,
        8
      ],
      "name": "__Lights.001"
    },
    {
      "children": [
        5
      ],
      "matrix": [
        1,
        0,
        0,
        0,
        0,
        1,
        0,
        0,
        0,
        0,
        1,
        0,
        -4.5,
        -4.5,
        7,
        1
      ],
      "name": "Portal.001"
    },
    {
      "name": "Portal.001"
    },
    {
      "children": [
        7
      ],
      "matrix": [
        1,
        0,
        0,
        0,
        0,
        1,
        0,
        0,
        0,
        0,
        1,
        0,
        0,
        1,
        5,
        1
      ],
      "name": "Ceiling.001"
    },
    {
      "name": "Ceiling.001"
    },
    {
      "children": [
        9
      ],
      "matrix": [
        1,
        0,
        0,
        0,
        0,
        1,
        0,
        0,
        0,
        0,
        1,
        0,
        -0.5,
        1.5,
        1.7000000000000002,
        1
      ],
      "name": "FirePlace.001"
    },
    {
      "name": "FirePlace.001"
    },
    {
      "children": [
        11
      ],
      "matrix": [
        4,
        0,
        0,
        0,
        0,
        9,
        0,
        0,
        0,
        0,
        3.5,
        0,
        2,
        -5,
        -0.20000000000000001,
        1
      ],
      "name": "Base_1x1x0.8_proxy.005"
    },
    {
      "children": [
        12,
        13,
        14,
        15,
        16,
        17,
        18,
        19,
        20,
        21
      ],
      "name": "Geode"
    },
    {
      "mesh": 0,
      "name": "Base_1x1x0.8_proxy.005_0"
    },
    {
      "mesh": 1,
      "name": "Base_1x1x0.8_proxy.005_1"
    },
    {
      "mesh": 2,
      "name": "Base_1x1x0.8_proxy.005_2"
    },
    {
      "mesh": 3,
      "name": "Base_1x1x0.8_proxy.005_3"
    },
    {
      "mesh": 4,
      "name": "Base_1x1x0.8_proxy.005_4"
    },
    {
      "mesh": 5,
      "name": "Base_1x1x0.8_proxy.005_5"
    },
    {
      "mesh": 6,
      "name": "Base_1x1x0.8_proxy.005_6"
    },
    {
      "mesh": 7,
      "name": "Base_1x1x0.8_proxy.005_7"
    },
    {
      "mesh": 8,
      "name": "Base_1x1x0.8_proxy.005_8"
    },
    {
      "mesh": 9,
      "name": "Base_1x1x0.8_proxy.005_9"
    }
  ],
  "scene": 0,
  "scenes": [
    {
      "name": "OSG_Scene",
      "nodes": [
        0
      ]
    }
  ]
}

