{
  "accessors": [
    {
      "bufferView": 1,
      "componentType": 5126,
      "count": 238,
      "max": [
        0.5,
        1,
        2.169219970703125
      ],
      "min": [
        0,
        -0,
        0
      ],
      "type": "VEC3"
    },
    {
      "bufferView": 1,
      "byteOffset": 2856,
      "componentType": 5126,
      "count": 238,
      "max": [
        1,
        1,
        1
      ],
      "min": [
        -1,
        -1,
        -1
      ],
      "type": "VEC3"
    },
    {
      "bufferView": 0,
      "componentType": 5125,
      "count": 579,
      "max": [
        237
      ],
      "min": [
        0
      ],
      "type": "SCALAR"
    },
    {
      "bufferView": 1,
      "byteOffset": 5712,
      "componentType": 5126,
      "count": 326,
      "max": [
        0.40000000596046448,
        0.93999999761581421,
        1.815000057220459
      ],
      "min": [
        0.059999998658895493,
        0.059999998658895493,
        1.0299999713897705
      ],
      "type": "VEC3"
    },
    {
      "bufferView": 1,
      "byteOffset": 9624,
      "componentType": 5126,
      "count": 326,
      "max": [
        1,
        1,
        1
      ],
      "min": [
        -1,
        -1,
        -1
      ],
      "type": "VEC3"
    },
    {
      "bufferView": 0,
      "byteOffset": 2316,
      "componentType": 5125,
      "count": 750,
      "max": [
        325
      ],
      "min": [
        0
      ],
      "type": "SCALAR"
    },
    {
      "bufferView": 1,
      "byteOffset": 13536,
      "componentType": 5126,
      "count": 16,
      "max": [
        0.36000001430511475,
        0.93999999761581421,
        1.7150000333786011
      ],
      "min": [
        0.059999998658895493,
        0.63999998569488525,
        1.6950000524520874
      ],
      "type": "VEC3"
    },
    {
      "bufferView": 1,
      "byteOffset": 13728,
      "componentType": 5126,
      "count": 16,
      "max": [
        1,
        1,
        0
      ],
      "min": [
        -1,
        -1,
        0
      ],
      "type": "VEC3"
    },
    {
      "bufferView": 0,
      "byteOffset": 5316,
      "componentType": 5125,
      "count": 24,
      "max": [
        15
      ],
      "min": [
        0
      ],
      "type": "SCALAR"
    },
    {
      "bufferView": 1,
      "byteOffset": 13920,
      "componentType": 5126,
      "count": 259,
      "max": [
        0.40340998768806458,
        0.88999998569488525,
        1.8305200338363647
      ],
      "min": [
        0.20340999960899353,
        0.25999999046325684,
        1.0299999713897705
      ],
      "type": "VEC3"
    },
    {
      "bufferView": 1,
      "byteOffset": 17028,
      "componentType": 5126,
      "count": 259,
      "max": [
        1,
        1,
        1
      ],
      "min": [
        -1,
        -1,
        -1
      ],
      "type": "VEC3"
    },
    {
      "bufferView": 0,
      "byteOffset": 5412,
      "componentType": 5125,
      "count": 621,
      "max": [
        258
      ],
      "min": [
        0
      ],
      "type": "SCALAR"
    },
    {
      "bufferView": 1,
      "byteOffset": 20136,
      "componentType": 5126,
      "count": 156,
      "max": [
        0.39340999722480774,
        0.93000000715255737,
        1.8550000190734863
      ],
      "min": [
        0.15999999642372131,
        0.070000000298023224,
        1.0399999618530273
      ],
      "type": "VEC3"
    },
    {
      "bufferView": 1,
      "byteOffset": 22008,
      "componentType": 5126,
      "count": 156,
      "max": [
        -0,
        0.37967929244041443,
        1
      ],
      "min": [
        -1,
        -0.37967929244041443,
        -1
      ],
      "type": "VEC3"
    },
    {
      "bufferView": 0,
      "byteOffset": 7896,
      "componentType": 5125,
      "count": 234,
      "max": [
        155
      ],
      "min": [
        0
      ],
      "type": "SCALAR"
    },
    {
      "bufferView": 1,
      "byteOffset": 23880,
      "componentType": 5126,
      "count": 363,
      "max": [
        0.40000000596046448,
        0.93999999761581421,
        1.8650000095367432
      ],
      "min": [
        0.15000000596046448,
        0.059999998658895493,
        1.0299999713897705
      ],
      "type": "VEC3"
    },
    {
      "bufferView": 1,
      "byteOffset": 28236,
      "componentType": 5126,
      "count": 363,
      "max": [
        1,
        1,
        1
      ],
      "min": [
        -1,
        -1,
        -1
      ],
      "type": "VEC3"
    },
    {
      "bufferView": 0,
      "byteOffset": 8832,
      "componentType": 5125,
      "count": 660,
      "max": [
        362
      ],
      "min": [
        0
      ],
      "type": "SCALAR"
    },
    {
      "bufferView": 1,
      "byteOffset": 32592,
      "componentType": 5126,
      "count": 282,
      "max": [
        0.40000000596046448,
        0.46000000834465027,
        1.8350000381469727
      ],
      "min": [
        0.15000000596046448,
        0.10999999940395355,
        1.0299999713897705
      ],
      "type": "VEC3"
    },
    {
      "bufferView": 1,
      "byteOffset": 35976,
      "componentType": 5126,
      "count": 282,
      "max": [
        1,
        1,
        1
      ],
      "min": [
        -1,
        -1,
        -1
      ],
      "type": "VEC3"
    },
    {
      "bufferView": 0,
      "byteOffset": 11472,
      "componentType": 5125,
      "count": 663,
      "max": [
        281
      ],
      "min": [
        0
      ],
      "type": "SCALAR"
    }
  ],
  "asset": {
    "generator": "Sketchfab (OSG glTF plugin)",
    "version": "2.0"
  },
  "bufferViews": [
    {
      "buffer": 0,
      "byteLength": 14124,
      "byteOffset": 0,
      "name": "floatBufferViews",
      "target": 34963
    },
    {
      "buffer": 0,
      "byteLength": 39360,
      "byteOffset": 14124,
      "byteStride": 12,
      "name": "floatBufferViews",
      "target": 34962
    }
  ],
  "buffers": [
    {
      "byteLength": 53484,
      "uri": "scene.bin"
    }
  ],
  "materials": [
    {
      "doubleSided": true,
      "emissiveFactor": [
        0,
        0,
        0
      ],
      "name": "Wood",
      "pbrMetallicRoughness": {
        "baseColorFactor": [
          0.12823618949999999,
          0.066952794800000007,
          0.0434705913,
          1
        ],
        "metallicFactor": 0,
        "roughnessFactor": 0.59999999999999998
      }
    },
    {
      "doubleSided": true,
      "emissiveFactor": [
        0,
        0,
        0
      ],
      "name": "DarkBrown",
      "pbrMetallicRoughness": {
        "baseColorFactor": [
          0.033100590100000001,
          0.0136899734,
          0,
          1
        ],
        "metallicFactor": 0,
        "roughnessFactor": 0.59999999999999998
      }
    },
    {
      "doubleSided": true,
      "name": "Cooper",
      "pbrMetallicRoughness": {
        "baseColorFactor": [
          0.30319264530000001,
          0.094198152399999999,
          0.044307395800000003,
          1
        ],
        "metallicFactor": 0.5,
        "roughnessFactor": 0.59999999999999998
      }
    },
    {
      "doubleSided": true,
      "emissiveFactor": [
        0,
        0,
        0
      ],
      "name": "DarkBlue",
      "pbrMetallicRoughness": {
        "baseColorFactor": [
          0,
          0.016983609600000001,
          0.083528079099999999,
          1
        ],
        "metallicFactor": 0,
        "roughnessFactor": 0.59999999999999998
      }
    },
    {
      "doubleSided": true,
      "emissiveFactor": [
        0,
        0,
        0
      ],
      "name": "Paper",
      "pbrMetallicRoughness": {
        "baseColorFactor": [
          0.78739178180000002,
          0.65997022390000004,
          0.53831225630000001,
          1
        ],
        "metallicFactor": 0,
        "roughnessFactor": 0.59999999999999998
      }
    },
    {
      "doubleSided": true,
      "emissiveFactor": [
        0,
        0,
        0
      ],
      "name": "DarkGreen",
      "pbrMetallicRoughness": {
        "baseColorFactor": [
          0,
          0.052215345199999999,
          0.0090018175999999998,
          1
        ],
        "metallicFactor": 0,
        "roughnessFactor": 0.59999999999999998
      }
    },
    {
      "doubleSided": true,
      "emissiveFactor": [
        0,
        0,
        0
      ],
      "name": "DarkRed",
      "pbrMetallicRoughness": {
        "baseColorFactor": [
          0.052215345199999999,
          0.00049697119999999998,
          0,
          1
        ],
        "metallicFactor": 0,
        "roughnessFactor": 0.59999999999999998
      }
    }
  ],
  "meshes": [
    {
      "name": "Cabinet_0.5x1x2_proxy.001_0",
      "primitives": [
        {
          "attributes": {
            "NORMAL": 1,
            "POSITION": 0
          },
          "indices": 2,
          "material": 0,
          "mode": 4
        }
      ]
    },
    {
      "name": "Cabinet_0.5x1x2_proxy.001_1",
      "primitives": [
        {
          "attributes": {
            "NORMAL": 4,
            "POSITION": 3
          },
          "indices": 5,
          "material": 1,
          "mode": 4
        }
      ]
    },
    {
      "name": "Cabinet_0.5x1x2_proxy.001_2",
      "primitives": [
        {
          "attributes": {
            "NORMAL": 7,
            "POSITION": 6
          },
          "indices": 8,
          "material": 2,
          "mode": 4
        }
      ]
    },
    {
      "name": "Cabinet_0.5x1x2_proxy.001_3",
      "primitives": [
        {
          "attributes": {
            "NORMAL": 10,
            "POSITION": 9
          },
          "indices": 11,
          "material": 3,
          "mode": 4
        }
      ]
    },
    {
      "name": "Cabinet_0.5x1x2_proxy.001_4",
      "primitives": [
        {
          "attributes": {
            "NORMAL": 13,
            "POSITION": 12
          },
          "indices": 14,
          "material": 4,
          "mode": 4
        }
      ]
    },
    {
      "name": "Cabinet_0.5x1x2_proxy.001_5",
      "primitives": [
        {
          "attributes": {
            "NORMAL": 16,
            "POSITION": 15
          },
          "indices": 17,
          "material": 5,
          "mode": 4
        }
      ]
    },
    {
      "name": "Cabinet_0.5x1x2_proxy.001_6",
      "primitives": [
        {
          "attributes": {
            "NORMAL": 19,
            "POSITION": 18
          },
          "indices": 20,
          "material": 6,
          "mode": 4
        }
      ]
    }
  ],
  "nodes": [
    {
      "children": [
        1
      ],
      "name": "RootNode (gltf orientation matrix)",
      "rotation": [
        -0.70710678118654746,
        -0,
        -0,
        0.70710678118654757
      ]
    },
    {
      "children": [
        2
      ],
      "name": "RootNode (model correction matrix)"
    },
    {
      "children": [
        3
      ],
      "name": "Root"
    },
    {
      "children": [
        4
      ],
      "name": "Cabinet_0.5x1x2_proxy.001"
    },
    {
      "children": [
        5,
        6,
        7,
        8,
        9,
        10,
        11
      ],
      "name": "Geode"
    },
    {
      "mesh": 0,
      "name": "Cabinet_0.5x1x2_proxy.001_0"
    },
    {
      "mesh": 1,
      "name": "Cabinet_0.5x1x2_proxy.001_1"
    },
    {
      "mesh": 2,
      "name": "Cabinet_0.5x1x2_proxy.001_2"
    },
    {
      "mesh": 3,
      "name": "Cabinet_0.5x1x2_proxy.001_3"
    },
    {
      "mesh": 4,
      "name": "Cabinet_0.5x1x2_proxy.001_4"
    },
    {
      "mesh": 5,
      "name": "Cabinet_0.5x1x2_proxy.001_5"
    },
    {
      "mesh": 6,
      "name": "Cabinet_0.5x1x2_proxy.001_6"
    }
  ],
  "scene": 0,
  "scenes": [
    {
      "name": "OSG_Scene",
      "nodes": [
        0
      ]
    }
  ]
}

