{
  "accessors": [
    {
      "bufferView": 2,
      "componentType": 5126,
      "count": 156,
      "max": [
        -0.30000001192092896,
        0.10000000149011612,
        2.2000000476837158
      ],
      "min": [
        -1.6000000238418579,
        0,
        0.80000001192092896
      ],
      "type": "VEC3"
    },
    {
      "bufferView": 2,
      "byteOffset": 1872,
      "componentType": 5126,
      "count": 156,
      "max": [
        1,
        1,
        1
      ],
      "min": [
        -1,
        -1,
        -1
      ],
      "type": "VEC3"
    },
    {
      "bufferView": 3,
      "componentType": 5126,
      "count": 156,
      "max": [
        1,
        0,
        1,
        1
      ],
      "min": [
        -1,
        0,
        -1,
        1
      ],
      "type": "VEC4"
    },
    {
      "bufferView": 0,
      "componentType": 5125,
      "count": 234,
      "max": [
        155
      ],
      "min": [
        0
      ],
      "type": "SCALAR"
    },
    {
      "bufferView": 2,
      "byteOffset": 3744,
      "componentType": 5126,
      "count": 4,
      "max": [
        -0.34999999403953552,
        0.05000000074505806,
        2.1500000953674316
      ],
      "min": [
        -1.0499999523162842,
        0.05000000074505806,
        1.25
      ],
      "type": "VEC3"
    },
    {
      "bufferView": 2,
      "byteOffset": 3792,
      "componentType": 5126,
      "count": 4,
      "max": [
        0,
        1,
        0
      ],
      "min": [
        0,
        1,
        0
      ],
      "type": "VEC3"
    },
    {
      "bufferView": 3,
      "byteOffset": 2496,
      "componentType": 5126,
      "count": 4,
      "max": [
        0,
        0,
        1,
        1
      ],
      "min": [
        0,
        0,
        1,
        1
      ],
      "type": "VEC4"
    },
    {
      "bufferView": 0,
      "byteOffset": 936,
      "componentType": 5125,
      "count": 6,
      "max": [
        3
      ],
      "min": [
        0
      ],
      "type": "SCALAR"
    },
    {
      "bufferView": 2,
      "byteOffset": 3840,
      "componentType": 5126,
      "count": 4,
      "max": [
        -1.25,
        0.05000000074505806,
        1.5499999523162842
      ],
      "min": [
        -1.5499999523162842,
        0.05000000074505806,
        1.0499999523162842
      ],
      "type": "VEC3"
    },
    {
      "bufferView": 2,
      "byteOffset": 3888,
      "componentType": 5126,
      "count": 4,
      "max": [
        0,
        1,
        0
      ],
      "min": [
        0,
        1,
        0
      ],
      "type": "VEC3"
    },
    {
      "bufferView": 3,
      "byteOffset": 2560,
      "componentType": 5126,
      "count": 4,
      "max": [
        -1,
        0,
        0,
        1
      ],
      "min": [
        -1,
        0,
        0,
        1
      ],
      "type": "VEC4"
    },
    {
      "bufferView": 1,
      "componentType": 5126,
      "count": 4,
      "max": [
        0.80000001192092896,
        1
      ],
      "min": [
        0.20000000298023224,
        0
      ],
      "type": "VEC2"
    },
    {
      "bufferView": 0,
      "byteOffset": 960,
      "componentType": 5125,
      "count": 6,
      "max": [
        3
      ],
      "min": [
        0
      ],
      "type": "SCALAR"
    },
    {
      "bufferView": 2,
      "byteOffset": 3936,
      "componentType": 5126,
      "count": 4,
      "max": [
        -0.55000001192092896,
        0.05000000074505806,
        1.0499999523162842
      ],
      "min": [
        -1.0499999523162842,
        0.05000000074505806,
        0.85000002384185791
      ],
      "type": "VEC3"
    },
    {
      "bufferView": 2,
      "byteOffset": 3984,
      "componentType": 5126,
      "count": 4,
      "max": [
        0,
        1,
        0
      ],
      "min": [
        0,
        1,
        0
      ],
      "type": "VEC3"
    },
    {
      "bufferView": 3,
      "byteOffset": 2624,
      "componentType": 5126,
      "count": 4,
      "max": [
        1,
        0,
        0,
        1
      ],
      "min": [
        1,
        0,
        0,
        1
      ],
      "type": "VEC4"
    },
    {
      "bufferView": 1,
      "byteOffset": 32,
      "componentType": 5126,
      "count": 4,
      "max": [
        1,
        0.69999998807907104
      ],
      "min": [
        0,
        0.30000001192092896
      ],
      "type": "VEC2"
    },
    {
      "bufferView": 0,
      "byteOffset": 984,
      "componentType": 5125,
      "count": 6,
      "max": [
        3
      ],
      "min": [
        0
      ],
      "type": "SCALAR"
    },
    {
      "bufferView": 2,
      "byteOffset": 4032,
      "componentType": 5126,
      "count": 210,
      "max": [
        -0.45767998695373535,
        0.10000000149011612,
        2.0499999523162842
      ],
      "min": [
        -0.95767998695373535,
        0.05000000074505806,
        1.3500000238418579
      ],
      "type": "VEC3"
    },
    {
      "bufferView": 2,
      "byteOffset": 6552,
      "componentType": 5126,
      "count": 210,
      "max": [
        1,
        1,
        1
      ],
      "min": [
        -1,
        -1,
        -1
      ],
      "type": "VEC3"
    },
    {
      "bufferView": 3,
      "byteOffset": 2688,
      "componentType": 5126,
      "count": 210,
      "max": [
        0,
        0,
        0,
        1
      ],
      "min": [
        0,
        0,
        0,
        1
      ],
      "type": "VEC4"
    },
    {
      "bufferView": 0,
      "byteOffset": 1008,
      "componentType": 5125,
      "count": 426,
      "max": [
        209
      ],
      "min": [
        0
      ],
      "type": "SCALAR"
    },
    {
      "bufferView": 2,
      "byteOffset": 9072,
      "componentType": 5126,
      "count": 96,
      "max": [
        -0.48767998814582825,
        0.10999999940395355,
        2.0499999523162842
      ],
      "min": [
        -0.97535997629165649,
        0.05000000074505806,
        1.440000057220459
      ],
      "type": "VEC3"
    },
    {
      "bufferView": 2,
      "byteOffset": 10224,
      "componentType": 5126,
      "count": 96,
      "max": [
        1,
        0.99681496620178223,
        0.99588465690612793
      ],
      "min": [
        -1,
        -0.99681496620178223,
        -0.99588465690612793
      ],
      "type": "VEC3"
    },
    {
      "bufferView": 3,
      "byteOffset": 6048,
      "componentType": 5126,
      "count": 96,
      "max": [
        0,
        0,
        0,
        1
      ],
      "min": [
        0,
        0,
        0,
        1
      ],
      "type": "VEC4"
    },
    {
      "bufferView": 0,
      "byteOffset": 2712,
      "componentType": 5125,
      "count": 132,
      "max": [
        95
      ],
      "min": [
        0
      ],
      "type": "SCALAR"
    }
  ],
  "asset": {
    "generator": "Sketchfab (OSG glTF plugin)",
    "version": "2.0"
  },
  "bufferViews": [
    {
      "buffer": 0,
      "byteLength": 3240,
      "byteOffset": 0,
      "name": "floatBufferViews",
      "target": 34963
    },
    {
      "buffer": 0,
      "byteLength": 64,
      "byteOffset": 3240,
      "byteStride": 8,
      "name": "floatBufferViews",
      "target": 34962
    },
    {
      "buffer": 0,
      "byteLength": 11376,
      "byteOffset": 3304,
      "byteStride": 12,
      "name": "floatBufferViews",
      "target": 34962
    },
    {
      "buffer": 0,
      "byteLength": 7584,
      "byteOffset": 14680,
      "byteStride": 16,
      "name": "floatBufferViews",
      "target": 34962
    }
  ],
  "buffers": [
    {
      "byteLength": 22264,
      "uri": "scene.bin"
    }
  ],
  "images": [
    {
      "uri": "textures/Canvas02_baseColor.png"
    },
    {
      "uri": "textures/Canvas03_baseColor.png"
    }
  ],
  "materials": [
    {
      "doubleSided": true,
      "emissiveFactor": [
        0,
        0,
        0
      ],
      "name": "StoneDark",
      "pbrMetallicRoughness": {
        "baseColorFactor": [
          0.057024791800000002,
          0.056267160900000002,
          0.057788319900000003,
          1
        ],
        "metallicFactor": 0,
        "roughnessFactor": 0.59999999999999998
      }
    },
    {
      "doubleSided": true,
      "emissiveFactor": [
        0,
        0,
        0
      ],
      "name": "Paper",
      "pbrMetallicRoughness": {
        "baseColorFactor": [
          0.78739178180000002,
          0.65997022390000004,
          0.53831225630000001,
          1
        ],
        "metallicFactor": 0,
        "roughnessFactor": 0.59999999999999998
      }
    },
    {
      "doubleSided": true,
      "emissiveFactor": [
        0,
        0,
        0
      ],
      "name": "Canvas02",
      "pbrMetallicRoughness": {
        "baseColorFactor": [
          1,
          1,
          1,
          1
        ],
        "baseColorTexture": {
          "index": 0,
          "texCoord": 0
        },
        "metallicFactor": 0,
        "roughnessFactor": 0.5
      }
    },
    {
      "doubleSided": true,
      "emissiveFactor": [
        0,
        0,
        0
      ],
      "name": "Canvas03",
      "pbrMetallicRoughness": {
        "baseColorFactor": [
          1,
          1,
          1,
          1
        ],
        "baseColorTexture": {
          "index": 1,
          "texCoord": 0
        },
        "metallicFactor": 0,
        "roughnessFactor": 0.59999999999999998
      }
    },
    {
      "doubleSided": true,
      "emissiveFactor": [
        0,
        0,
        0
      ],
      "name": "Wood",
      "pbrMetallicRoughness": {
        "baseColorFactor": [
          0.12823618949999999,
          0.066952794800000007,
          0.0434705913,
          1
        ],
        "metallicFactor": 0,
        "roughnessFactor": 0.59999999999999998
      }
    },
    {
      "doubleSided": true,
      "emissiveFactor": [
        0,
        0,
        0
      ],
      "name": "Metal",
      "pbrMetallicRoughness": {
        "baseColorFactor": [
          0.2203762531,
          0.22507911920000001,
          0.23954643310000001,
          1
        ],
        "metallicFactor": 0,
        "roughnessFactor": 0.59999999999999998
      }
    }
  ],
  "meshes": [
    {
      "name": "Frames01_ weapons_2x0.1x2_0",
      "primitives": [
        {
          "attributes": {
            "NORMAL": 1,
            "POSITION": 0,
            "TANGENT": 2
          },
          "indices": 3,
          "material": 0,
          "mode": 4
        }
      ]
    },
    {
      "name": "Frames01_ weapons_2x0.1x2_1",
      "primitives": [
        {
          "attributes": {
            "NORMAL": 5,
            "POSITION": 4,
            "TANGENT": 6
          },
          "indices": 7,
          "material": 1,
          "mode": 4
        }
      ]
    },
    {
      "name": "Frames01_ weapons_2x0.1x2_2",
      "primitives": [
        {
          "attributes": {
            "NORMAL": 9,
            "POSITION": 8,
            "TANGENT": 10,
            "TEXCOORD_0": 11
          },
          "indices": 12,
          "material": 2,
          "mode": 4
        }
      ]
    },
    {
      "name": "Frames01_ weapons_2x0.1x2_3",
      "primitives": [
        {
          "attributes": {
            "NORMAL": 14,
            "POSITION": 13,
            "TANGENT": 15,
            "TEXCOORD_0": 16
          },
          "indices": 17,
          "material": 3,
          "mode": 4
        }
      ]
    },
    {
      "name": "Frames01_ weapons_2x0.1x2_4",
      "primitives": [
        {
          "attributes": {
            "NORMAL": 19,
            "POSITION": 18,
            "TANGENT": 20
          },
          "indices": 21,
          "material": 4,
          "mode": 4
        }
      ]
    },
    {
      "name": "Frames01_ weapons_2x0.1x2_5",
      "primitives": [
        {
          "attributes": {
            "NORMAL": 23,
            "POSITION": 22,
            "TANGENT": 24
          },
          "indices": 25,
          "material": 5,
          "mode": 4
        }
      ]
    }
  ],
  "nodes": [
    {
      "children": [
        1
      ],
      "name": "RootNode (gltf orientation matrix)",
      "rotation": [
        -0.70710678118654746,
        -0,
        -0,
        0.70710678118654757
      ]
    },
    {
      "children": [
        2
      ],
      "name": "RootNode (model correction matrix)"
    },
    {
      "children": [
        3,
        16
      ],
      "name": "Root"
    },
    {
      "children": [
        4,
        6,
        8,
        10,
        12,
        14
      ],
      "name": "__Lights"
    },
    {
      "children": [
        5
      ],
      "matrix": [
        1,
        0,
        0,
        0,
        0,
        1,
        0,
        0,
        0,
        0,
        1,
        0,
        3,
        4,
        6.5,
        1
      ],
      "name": "Desk"
    },
    {
      "name": "Desk"
    },
    {
      "children": [
        7
      ],
      "matrix": [
        1,
        0,
        0,
        0,
        0,
        1,
        0,
        0,
        0,
        0,
        1,
        0,
        -0.5,
        1.5,
        1.7000000000000002,
        1
      ],
      "name": "FirePlace"
    },
    {
      "name": "FirePlace"
    },
    {
      "children": [
        9
      ],
      "matrix": [
        1,
        0,
        0,
        0,
        0,
        1,
        0,
        0,
        0,
        0,
        1,
        0,
        0,
        1,
        5,
        1
      ],
      "name": "Ceiling"
    },
    {
      "name": "Ceiling"
    },
    {
      "children": [
        11
      ],
      "matrix": [
        0.5,
        0.86603000000000008,
        0,
        0,
        -0.75000000000000011,
        0.43301000000000006,
        0.5,
        0,
        0.43301000000000006,
        -0.25,
        0.86603000000000008,
        0,
        14,
        -10,
        12,
        1
      ],
      "name": "SunWarm"
    },
    {
      "name": "SunWarm"
    },
    {
      "children": [
        13
      ],
      "matrix": [
        -0,
        1,
        0,
        0,
        0.86603000000000008,
        0,
        0.5,
        0,
        0.5,
        0,
        -0.86603000000000008,
        0,
        19,
        -1,
        1,
        1
      ],
      "name": "SunCold"
    },
    {
      "name": "SunCold"
    },
    {
      "children": [
        15
      ],
      "matrix": [
        1,
        0,
        0,
        0,
        0,
        1,
        0,
        0,
        0,
        0,
        1,
        0,
        -4.5,
        -4.5,
        7,
        1
      ],
      "name": "Portal"
    },
    {
      "name": "Portal"
    },
    {
      "children": [
        17
      ],
      "name": "Frames01_ weapons_2x0.1x2"
    },
    {
      "children": [
        18,
        19,
        20,
        21,
        22,
        23
      ],
      "name": "Geode"
    },
    {
      "mesh": 0,
      "name": "Frames01_ weapons_2x0.1x2_0"
    },
    {
      "mesh": 1,
      "name": "Frames01_ weapons_2x0.1x2_1"
    },
    {
      "mesh": 2,
      "name": "Frames01_ weapons_2x0.1x2_2"
    },
    {
      "mesh": 3,
      "name": "Frames01_ weapons_2x0.1x2_3"
    },
    {
      "mesh": 4,
      "name": "Frames01_ weapons_2x0.1x2_4"
    },
    {
      "mesh": 5,
      "name": "Frames01_ weapons_2x0.1x2_5"
    }
  ],
  "samplers": [
    {
      "magFilter": 9729,
      "minFilter": 9987,
      "wrapS": 10497,
      "wrapT": 10497
    }
  ],
  "scene": 0,
  "scenes": [
    {
      "name": "OSG_Scene",
      "nodes": [
        0
      ]
    }
  ],
  "textures": [
    {
      "sampler": 0,
      "source": 0
    },
    {
      "sampler": 0,
      "source": 1
    }
  ]
}

